<svg width="32" height="20" viewBox="0 0 32 20" fill="none" xmlns="http://www.w3.org/2000/svg">
<g clip-path="url(#clip0_91_39)">
<path d="M15.8193 19.9423C15.711 19.9423 15.6099 19.9129 15.5159 19.8613L14.5553 19.2798C14.4108 19.1988 14.483 19.1694 14.5264 19.1546C14.7214 19.0884 14.7575 19.0736 14.9598 18.9559C14.9814 18.9411 15.0104 18.9485 15.032 18.9632L15.7688 19.4123C15.7977 19.427 15.8338 19.427 15.8554 19.4123L18.7376 17.7118C18.7665 17.6971 18.781 17.6676 18.781 17.6308V14.2372C18.781 14.2003 18.7665 14.1709 18.7376 14.1562L15.8554 12.463C15.8266 12.4483 15.7904 12.4483 15.7688 12.463L12.8866 14.1562C12.8578 14.1709 12.8433 14.2077 12.8433 14.2371V17.6308C12.8433 17.6602 12.8578 17.697 12.8866 17.7118L13.674 18.1755C14.1002 18.3964 14.3674 18.1387 14.3674 17.8811V14.5316C14.3674 14.4874 14.4036 14.4432 14.4541 14.4432H14.8225C14.8659 14.4432 14.9092 14.4801 14.9092 14.5316V17.8811C14.9092 18.4626 14.5986 18.8013 14.0568 18.8013C13.8907 18.8013 13.7607 18.8013 13.3923 18.6172L12.6338 18.1755C12.446 18.0651 12.3304 17.859 12.3304 17.6381V14.2445C12.3304 14.0237 12.446 13.8175 12.6338 13.7071L15.5159 12.0066C15.6966 11.9036 15.9422 11.9036 16.1228 12.0066L19.0049 13.7071C19.1927 13.8175 19.3083 14.0237 19.3083 14.2445V17.6381C19.3083 17.859 19.1927 18.0651 19.0049 18.1755L16.1228 19.876C16.0288 19.9202 15.9205 19.9423 15.8194 19.9423H15.8193ZM16.7078 17.6087C15.4438 17.6087 15.1837 17.0198 15.1837 16.5192C15.1837 16.475 15.2198 16.4309 15.2704 16.4309H15.646C15.6893 16.4309 15.7254 16.4603 15.7254 16.5045C15.7833 16.8946 15.9494 17.086 16.7151 17.086C17.3218 17.086 17.5819 16.9462 17.5819 16.6149C17.5819 16.4235 17.5096 16.2837 16.5634 16.188C15.776 16.1069 15.2848 15.9303 15.2848 15.2899C15.2848 14.6936 15.7761 14.3402 16.5995 14.3402C17.5241 14.3402 17.9792 14.6641 18.037 15.3708C18.037 15.3929 18.0298 15.415 18.0153 15.4371C18.0008 15.4518 17.9792 15.4665 17.9575 15.4665H17.5819C17.5458 15.4665 17.5096 15.4371 17.5024 15.4002C17.4158 14.9954 17.1918 14.8629 16.5995 14.8629C15.9349 14.8629 15.8554 15.0985 15.8554 15.2751C15.8554 15.4886 15.9494 15.5548 16.8451 15.6726C17.7336 15.7904 18.1526 15.9597 18.1526 16.5928C18.1453 17.2406 17.6253 17.6087 16.7078 17.6087Z" fill="#539E43"/>
<path d="M6.87672 6.66957C6.87672 6.53709 6.80447 6.41186 6.6889 6.34562L3.62615 4.54944C3.57553 4.51995 3.51778 4.50524 3.46003 4.49785H3.43109C3.37334 4.49785 3.31553 4.51995 3.26497 4.54944L0.202217 6.34562C0.0865918 6.41186 0.0144043 6.53702 0.0144043 6.66957L0.0216543 11.4987C0.0216543 11.5649 0.0577793 11.6312 0.115529 11.6607C0.173342 11.6975 0.245529 11.6975 0.296154 11.6607L2.11647 10.6006C2.23203 10.5343 2.30428 10.4092 2.30428 10.2767V8.0167C2.30428 7.88422 2.37647 7.75906 2.49209 7.69282L3.26497 7.23638C3.32278 7.19957 3.38778 7.18479 3.45278 7.18479C3.51778 7.18479 3.58278 7.19957 3.6334 7.23638L4.40628 7.69282C4.5219 7.75906 4.59409 7.88416 4.59409 8.0167V10.2767C4.59409 10.4092 4.66634 10.5343 4.7819 10.6006L6.60222 11.6607C6.63034 11.6787 6.66289 11.6883 6.69612 11.6883C6.72935 11.6883 6.76191 11.6787 6.79003 11.6607C6.84784 11.6312 6.88397 11.5649 6.88397 11.4987L6.87672 6.66957ZM21.5982 0.0221178C21.5404 -0.00737261 21.4682 -0.00737261 21.4175 0.0221178C21.3598 0.0589331 21.3237 0.117787 21.3237 0.184029V4.96906C21.3237 5.0132 21.302 5.05734 21.2587 5.08683C21.2153 5.10887 21.172 5.10887 21.1287 5.08683L20.363 4.63779C20.3068 4.60521 20.2433 4.58808 20.1787 4.58808C20.1142 4.58808 20.0507 4.60521 19.9945 4.63779L16.9318 6.44135C16.8162 6.50759 16.744 6.63275 16.744 6.76524V10.365C16.744 10.4975 16.8162 10.6227 16.9318 10.6889L19.9945 12.4925C20.0507 12.5251 20.1142 12.5422 20.1787 12.5422C20.2433 12.5422 20.3068 12.5251 20.363 12.4925L23.4257 10.6889C23.5413 10.6227 23.6135 10.4975 23.6135 10.365V1.39135C23.6135 1.25148 23.5413 1.12639 23.4257 1.06008L21.5982 0.0221178H21.5982ZM21.3165 9.17982C21.3165 9.21664 21.302 9.24607 21.2731 9.26078L20.2257 9.87912C20.2111 9.8864 20.195 9.89018 20.1787 9.89018C20.1625 9.89018 20.1464 9.8864 20.1318 9.87912L19.0844 9.26078C19.0555 9.24607 19.041 9.20925 19.041 9.17982V7.94307C19.041 7.90626 19.0555 7.87683 19.0844 7.86212L20.1318 7.24371C20.1464 7.23644 20.1625 7.23266 20.1787 7.23266C20.195 7.23266 20.2111 7.23644 20.2257 7.24371L21.2731 7.86212C21.302 7.87677 21.3165 7.91365 21.3165 7.94307V9.17982ZM31.7905 7.91365C31.9061 7.8474 31.9711 7.72224 31.9711 7.5897V6.71371C31.9711 6.58123 31.8988 6.45607 31.7905 6.38982L28.7494 4.59365C28.6933 4.56107 28.6298 4.54394 28.5652 4.54394C28.5006 4.54394 28.4371 4.56107 28.381 4.59365L25.3182 6.39715C25.2026 6.46339 25.1304 6.58855 25.1304 6.72103V10.3208C25.1304 10.4533 25.2027 10.5785 25.3182 10.6447L28.3593 12.4115C28.4749 12.4777 28.6122 12.4777 28.7205 12.4115L30.5625 11.3663C30.6203 11.3368 30.6564 11.2705 30.6564 11.2043C30.6564 11.138 30.6203 11.0718 30.5625 11.0423L27.4853 9.23874C27.4275 9.20193 27.3913 9.14307 27.3913 9.07683V7.95052C27.3913 7.88428 27.4275 7.81804 27.4853 7.78855L28.446 7.22906C28.4741 7.21102 28.5066 7.20145 28.5399 7.20145C28.5731 7.20145 28.6057 7.21102 28.6338 7.22906L29.5945 7.78855C29.6523 7.82537 29.6884 7.88422 29.6884 7.95052V8.8339C29.6884 8.90014 29.7245 8.96638 29.7823 8.99581C29.8105 9.01385 29.843 9.02343 29.8762 9.02343C29.9095 9.02343 29.942 9.01385 29.9702 8.99581L31.7905 7.91365V7.91365Z" fill="#333333"/>
<path d="M28.5182 7.74432C28.5289 7.73712 28.5414 7.73328 28.5543 7.73328C28.5671 7.73328 28.5797 7.73712 28.5904 7.74432L29.1755 8.09031C29.1972 8.10509 29.2116 8.12712 29.2116 8.15655V8.84859C29.2116 8.87802 29.1972 8.90012 29.1755 8.91483L28.5904 9.26082C28.5797 9.26802 28.5671 9.27186 28.5543 9.27186C28.5414 9.27186 28.5289 9.26802 28.5182 9.26082L27.9331 8.91483C27.9114 8.90012 27.897 8.87802 27.897 8.84859V8.15661C27.897 8.12712 27.9113 8.10502 27.9331 8.09037L28.5182 7.74432V7.74432Z" fill="#539E43"/>
<path d="M11.9981 4.6084C11.942 4.57584 11.8785 4.55872 11.814 4.55872C11.7494 4.55872 11.6859 4.57584 11.6298 4.6084L8.58871 6.39713C8.47308 6.46337 8.40808 6.58853 8.40808 6.72101V10.3061C8.40808 10.4386 8.48033 10.5637 8.58871 10.63L11.6298 12.4188C11.6859 12.4514 11.7494 12.4685 11.814 12.4685C11.8785 12.4685 11.942 12.4514 11.9981 12.4188L15.0393 10.63C15.1548 10.5637 15.2199 10.4386 15.2199 10.3061V6.72107C15.2199 6.58859 15.1476 6.46343 15.0393 6.39719L11.9981 4.6084Z" fill="url(#paint0_linear_91_39)"/>
</g>
<defs>
<linearGradient id="paint0_linear_91_39" x1="13.0529" y1="5.9419" x2="9.6291" y2="11.2209" gradientUnits="userSpaceOnUse">
<stop stop-color="#41873F"/>
<stop offset="0.3288" stop-color="#418B3D"/>
<stop offset="0.6352" stop-color="#419637"/>
<stop offset="0.9319" stop-color="#3FA92D"/>
<stop offset="1" stop-color="#3FAE2A"/>
</linearGradient>
<clipPath id="clip0_91_39">
<rect width="32" height="20" fill="white"/>
</clipPath>
</defs>
</svg>
