<svg width="33" height="18" viewBox="0 0 33 18" fill="none" xmlns="http://www.w3.org/2000/svg">
<g clip-path="url(#clip0_91_29)">
<path d="M16.5 17.9467C25.6127 17.9467 33 13.9292 33 8.97333C33 4.0175 25.6127 0 16.5 0C7.3873 0 0 4.0175 0 8.97333C0 13.9292 7.3873 17.9467 16.5 17.9467Z" fill="url(#paint0_radial_91_29)"/>
<path d="M16.5 17.28C25.2567 17.28 32.3555 13.5609 32.3555 8.97329C32.3555 4.38565 25.2567 0.666626 16.5 0.666626C7.74327 0.666626 0.644531 4.38565 0.644531 8.97329C0.644531 13.5609 7.74327 17.28 16.5 17.28Z" fill="#6181B6"/>
<path d="M19.7098 11.6667L20.4961 7.48001C20.6766 6.53335 20.5219 5.82668 20.0578 5.38668C19.6067 4.96001 18.8332 4.74668 17.6988 4.74668H16.3324L16.7192 2.66668C16.732 2.58668 16.7192 2.50668 16.6676 2.44001C16.616 2.37335 16.5516 2.34668 16.4742 2.34668H14.5922C14.4633 2.34668 14.3602 2.44001 14.3344 2.56001L13.4965 7.00001C13.4192 6.49335 13.2387 6.06668 12.9293 5.72001C12.375 5.06668 11.5113 4.73335 10.3383 4.73335H6.71603C6.58712 4.73335 6.48399 4.82668 6.45821 4.94668L4.76954 13.96C4.75665 14.04 4.76954 14.12 4.8211 14.1867C4.87267 14.2533 4.93712 14.28 5.01446 14.28H6.90939C7.03829 14.28 7.14142 14.1867 7.1672 14.0667L7.5797 11.8933H8.98478C9.71954 11.8933 10.3512 11.8133 10.8281 11.6533C11.3309 11.48 11.782 11.2 12.1817 10.8133C12.5039 10.5067 12.7746 10.16 12.9809 9.78668L12.6457 11.5867C12.6328 11.6667 12.6457 11.7467 12.6973 11.8133C12.7488 11.88 12.8133 11.9067 12.8906 11.9067H14.7727C14.9016 11.9067 15.0047 11.8133 15.0305 11.6933L15.9586 6.76001H17.2477C17.802 6.76001 17.9567 6.86668 18.0082 6.92001C18.0469 6.96001 18.1242 7.12001 18.034 7.61335L17.2863 11.6C17.2734 11.68 17.2863 11.76 17.3379 11.8267C17.3895 11.8933 17.4539 11.92 17.5313 11.92H19.4649C19.5809 11.88 19.684 11.7867 19.7098 11.6667ZM10.9957 8.20001C10.8797 8.82668 10.6606 9.28001 10.3383 9.53335C10.016 9.78668 9.48751 9.92001 8.79142 9.92001H7.95353L8.55939 6.69335H9.6422C10.4414 6.69335 10.7637 6.86668 10.8926 7.01335C11.0602 7.22668 11.0988 7.64001 10.9957 8.20001V8.20001ZM27.7535 5.72001C27.1992 5.06668 26.3356 4.73335 25.1625 4.73335H21.5145C21.3856 4.73335 21.2824 4.82668 21.2567 4.94668L19.568 13.9467C19.5551 14.0267 19.568 14.1067 19.6195 14.1733C19.6711 14.24 19.7356 14.2667 19.8129 14.2667H21.7078C21.8367 14.2667 21.9399 14.1733 21.9656 14.0533L22.3781 11.88H23.7832C24.518 11.88 25.1496 11.8 25.6266 11.64C26.1293 11.4667 26.5805 11.1867 26.9801 10.8C27.3152 10.48 27.5988 10.12 27.8051 9.73335C28.0113 9.34668 28.166 8.92001 28.2563 8.45335C28.4754 7.29335 28.3078 6.38668 27.7535 5.72001V5.72001ZM25.7813 8.20001C25.6652 8.82668 25.4461 9.28001 25.1238 9.53335C24.8016 9.78668 24.2731 9.92001 23.577 9.92001H22.7391L23.3449 6.69335H24.4277C25.227 6.69335 25.5492 6.86668 25.6781 7.01335C25.8586 7.22668 25.8973 7.64001 25.7813 8.20001Z" fill="white"/>
<path d="M9.64219 6.42661C10.3641 6.42661 10.841 6.55995 11.0859 6.83995C11.3309 7.11995 11.3824 7.58661 11.2535 8.25328C11.1246 8.94661 10.8668 9.45328 10.493 9.74661C10.1191 10.0399 9.55195 10.1866 8.79141 10.1866H7.64414L8.35313 6.42661H9.64219V6.42661ZM5.02734 13.9999H6.92227L7.37344 11.6133H8.99766C9.71953 11.6133 10.2996 11.5333 10.7637 11.3733C11.2277 11.2133 11.6402 10.9599 12.027 10.5866C12.3492 10.2799 12.607 9.94661 12.8004 9.58661C12.9937 9.22661 13.1355 8.82661 13.2129 8.38661C13.4191 7.31995 13.2645 6.49328 12.7617 5.89328C12.259 5.29328 11.4598 4.99995 10.3641 4.99995H6.71602L5.02734 13.9999ZM14.6051 2.61328H16.4871L16.0359 4.99995H17.7117C18.7687 4.99995 19.4906 5.18661 19.8902 5.57328C20.2898 5.95995 20.4059 6.57328 20.2512 7.42661L19.4648 11.6133H17.557L18.3047 7.62661C18.3949 7.17328 18.3562 6.86661 18.2145 6.70661C18.0727 6.54661 17.7504 6.45328 17.2734 6.45328H15.7652L14.7984 11.6133H12.9164L14.6051 2.61328ZM24.4277 6.42661C25.1496 6.42661 25.6266 6.55995 25.8715 6.83995C26.1164 7.11995 26.168 7.58661 26.0391 8.25328C25.9102 8.94661 25.6523 9.45328 25.2785 9.74661C24.9047 10.0399 24.3375 10.1866 23.577 10.1866H22.4297L23.1387 6.42661H24.4277V6.42661ZM19.8129 13.9999H21.7078L22.159 11.6133H23.7832C24.5051 11.6133 25.0852 11.5333 25.5492 11.3733C26.0133 11.2133 26.4258 10.9599 26.8125 10.5866C27.1348 10.2799 27.3926 9.94661 27.5859 9.58661C27.7793 9.22661 27.9211 8.82661 27.9984 8.38661C28.2047 7.31995 28.05 6.49328 27.5473 5.89328C27.0445 5.29328 26.2453 4.99995 25.1496 4.99995H21.5016L19.8129 13.9999Z" fill="#000004"/>
</g>
<defs>
<radialGradient id="paint0_radial_91_29" cx="0" cy="0" r="1" gradientUnits="userSpaceOnUse" gradientTransform="translate(9.90664 3.15567) scale(21.6685 22.4127)">
<stop stop-color="white"/>
<stop offset="0.5" stop-color="#4C6B97"/>
<stop offset="1" stop-color="#231F20"/>
</radialGradient>
<clipPath id="clip0_91_29">
<rect width="33" height="18" fill="white"/>
</clipPath>
</defs>
</svg>
