<svg width="20" height="20" viewBox="0 0 20 20" fill="none" xmlns="http://www.w3.org/2000/svg">
<g clip-path="url(#clip0_91_36)">
<path d="M19.9888 4.51667C19.9962 4.54326 20 4.57069 20 4.59826V8.88372C20 8.99569 19.9383 9.0991 19.838 9.15478L16.1289 11.2258V15.3303C16.1289 15.3852 16.114 15.4392 16.0858 15.4868C16.0575 15.5344 16.0168 15.5739 15.9678 15.6014L8.225 19.9236C8.20727 19.9333 8.18797 19.9395 8.16859 19.9463C8.16133 19.9486 8.15453 19.9529 8.14687 19.9549C8.09275 19.9687 8.03585 19.9687 7.98172 19.9549C7.97281 19.9526 7.96477 19.9478 7.95633 19.9447C7.93859 19.9384 7.92008 19.933 7.9032 19.9236L0.161953 15.6014C0.112761 15.574 0.071886 15.5345 0.0434516 15.4869C0.0150172 15.4393 2.93252e-05 15.3853 0 15.3303L0 2.47395C0 2.44577 0.0040625 2.41842 0.01125 2.3919C0.0136719 2.38289 0.0192969 2.3747 0.0225781 2.36569C0.0285938 2.34933 0.0342969 2.33251 0.043125 2.31728C0.0491406 2.30713 0.0579687 2.29895 0.0652344 2.28955C0.0745312 2.27705 0.0829687 2.26417 0.0938281 2.25319C0.103125 2.24425 0.115234 2.23758 0.125703 2.22978C0.137422 2.22039 0.147813 2.21023 0.161094 2.20281H0.161484L4.03227 0.0417502C4.08128 0.0143966 4.13684 0 4.1934 0C4.24995 0 4.30551 0.0143966 4.35453 0.0417502L8.22531 2.20281H8.22609C8.23898 2.21069 8.24992 2.22039 8.26156 2.2294C8.27203 2.2372 8.28375 2.24425 8.29297 2.25289C8.3043 2.26417 8.31234 2.27713 8.32195 2.28955C8.32883 2.29895 8.33813 2.30713 8.34375 2.31728C8.35297 2.33289 8.3582 2.34933 8.36469 2.36577C8.36789 2.3747 8.37352 2.38289 8.37594 2.39228C8.38336 2.41887 8.38719 2.44637 8.38727 2.47395V10.5038L11.6127 8.70281V4.59789C11.6127 4.57061 11.6168 4.54281 11.6241 4.51667C11.6269 4.50728 11.6321 4.4991 11.6353 4.49016C11.6418 4.47372 11.6474 4.45683 11.6562 4.44167C11.6623 4.43152 11.6711 4.42334 11.678 4.41395C11.6877 4.40145 11.6957 4.38857 11.707 4.37758C11.7163 4.36864 11.728 4.36198 11.7384 4.35417C11.7505 4.34478 11.761 4.33463 11.7739 4.3272H11.7743L15.6455 2.16614C15.6945 2.13875 15.75 2.12434 15.8066 2.12434C15.8632 2.12434 15.9187 2.13875 15.9677 2.16614L19.8385 4.3272C19.8522 4.33501 19.8627 4.34478 19.8748 4.35372C19.8848 4.3616 19.8965 4.36864 19.9058 4.3772C19.917 4.38857 19.9251 4.40145 19.9347 4.41395C19.942 4.42334 19.9509 4.43152 19.9566 4.44167C19.9658 4.45683 19.971 4.47372 19.9774 4.49016C19.9811 4.4991 19.9863 4.50728 19.9888 4.51667V4.51667ZM19.3548 8.70289V5.13925L18.0002 5.89539L16.1288 6.94023V10.5039L19.3552 8.70289H19.3548V8.70289ZM15.484 15.1495V11.5833L13.6432 12.6028L8.38687 15.5119V19.1114L15.484 15.1493V15.1495ZM0.645234 3.01486V15.1495L7.74156 19.1111V15.5123L4.03437 13.4777L4.0332 13.477L4.03164 13.4762C4.01914 13.4692 4.00859 13.459 3.99695 13.4505C3.9868 13.4426 3.97516 13.4364 3.96633 13.4277L3.96555 13.4266C3.95508 13.4168 3.94781 13.4047 3.93898 13.3938C3.93086 13.3832 3.92125 13.3742 3.91477 13.3633L3.91438 13.3621C3.90711 13.3505 3.90266 13.3364 3.89742 13.3231C3.89219 13.3114 3.88539 13.3004 3.88211 13.288V13.2876C3.87813 13.2727 3.87734 13.2571 3.8757 13.2418C3.87414 13.2302 3.87086 13.2184 3.87086 13.2067V4.81592L1.99984 3.77061L0.645234 3.01531V3.01486ZM4.19383 0.67372L0.968672 2.47395L4.19305 4.2741L7.41773 2.47349L4.19305 0.67372H4.19383ZM5.87102 11.9084L7.74195 10.864V3.01486L6.3875 3.77107L4.51602 4.81584V12.6649L5.87102 11.9084V11.9084ZM15.8066 2.79811L12.5819 4.59826L15.8066 6.39849L19.0309 4.59789L15.8066 2.79811H15.8066ZM15.4839 6.94023L13.6126 5.89539L12.258 5.13925V8.70289L14.129 9.74736L15.484 10.5039V6.94023H15.4839ZM8.06383 14.971L12.7937 12.3525L15.1581 11.044L11.9358 9.24501L8.2257 11.3162L4.8443 13.2039L8.06383 14.971Z" fill="#FF2D20"/>
</g>
<defs>
<clipPath id="clip0_91_36">
<rect width="20" height="20" fill="white"/>
</clipPath>
</defs>
</svg>
