<svg width="17" height="21" viewBox="0 0 17 21" fill="none" xmlns="http://www.w3.org/2000/svg">
<g clip-path="url(#clip0_91_34)">
<path d="M5.43448 20.9407C4.09155 20.3469 3.17906 19.0677 3.05933 17.6027C3.09814 16.8601 3.312 16.1372 3.68341 15.4932C4.05483 14.8491 4.57327 14.3021 5.19635 13.8969C4.98903 14.4029 5.03936 14.979 5.32717 15.4418C5.48716 15.6659 5.70887 15.8385 5.96523 15.9385C6.22159 16.0386 6.50151 16.0618 6.77084 16.0054C7.55709 15.7842 8.01762 14.9672 7.79655 14.1797C7.71793 13.9035 7.56174 13.6556 7.34652 13.4655C6.90901 13.1093 6.57076 12.6461 6.36449 12.1208C6.15822 11.5955 6.09091 11.0258 6.16907 10.4668C6.32223 9.8624 6.65557 9.31899 7.12479 8.90879C6.77151 9.85146 7.7678 10.7816 8.43631 11.2393C9.62276 11.9517 10.7656 12.7345 11.8587 13.5834C13.0538 14.5261 13.7053 16.0016 13.6033 17.5111C13.3344 19.1176 12.1988 20.4438 10.6512 20.9413C13.7472 20.252 16.9394 17.7907 17.0002 14.2996C16.9394 11.5063 15.2733 8.99976 12.7268 7.85812H12.6136C12.6703 7.99511 12.697 8.14263 12.6921 8.29081C12.7006 8.195 12.7006 8.09861 12.6921 8.00279C12.7058 8.11584 12.7058 8.23013 12.6921 8.34318C12.4984 9.13726 11.6978 9.62624 10.9024 9.43246C10.5845 9.35391 10.3006 9.17527 10.0965 8.91729C9.076 7.60811 10.0965 6.11818 10.2672 4.67795C10.319 3.77369 10.142 2.87097 9.75274 2.05329C9.36344 1.23562 8.77436 0.52941 8.04 0C8.78634 1.24511 7.79204 2.88032 7.0692 3.81057C6.34511 4.74075 5.29848 5.43402 4.44549 6.24571C3.52643 7.10132 2.68393 8.042 1.92777 9.04748C0.293044 11.0461 -0.34864 13.6822 0.183141 16.209C0.912548 18.6442 2.93508 20.4739 5.4293 20.9485H5.44305L5.43455 20.9407H5.43448Z" fill="#DD4814"/>
</g>
<defs>
<clipPath id="clip0_91_34">
<rect width="17" height="21" fill="white"/>
</clipPath>
</defs>
</svg>
