<svg width="25" height="17" viewBox="0 0 25 17" fill="none" xmlns="http://www.w3.org/2000/svg">
<g clip-path="url(#clip0_91_64)">
<path d="M0.834418 12.6389C1.0395 12.6564 1.23295 12.735 1.41601 12.8237C1.5436 12.8891 1.63012 13.0129 1.67309 13.1462C1.7811 13.443 1.72045 13.7878 1.52431 14.035C1.40214 14.1816 1.25331 14.3191 1.06127 14.3645C0.775922 14.4481 0.461469 14.3456 0.254437 14.1411C0.00770898 13.8699 -0.0823301 13.4495 0.0865664 13.116C0.218793 12.8329 0.520746 12.6405 0.834418 12.6389V12.6389ZM3.33496 9.84287C3.71415 10.062 4.07324 10.3302 4.33984 10.6799C4.51855 10.9155 4.6769 11.1678 4.8037 11.4346C4.89345 11.6297 4.96415 11.8386 4.96879 12.0547C4.97451 12.2625 4.84526 12.4454 4.69785 12.5809C4.52973 12.7169 4.36484 12.8602 4.17363 12.9638C3.92773 13.092 3.63857 13.1554 3.36269 13.1041C3.02431 13.048 2.70737 12.8869 2.45082 12.6629C2.54306 12.6044 2.64614 12.5229 2.64614 12.4036C2.66494 12.1804 2.44404 11.9865 2.22534 12.0029C2.14208 12.0394 2.0893 12.1192 2.02944 12.1837C1.89179 11.9697 1.78354 11.7185 1.80859 11.46C1.87822 11.001 2.03027 10.5461 2.30693 10.1675C2.33603 10.133 2.33906 10.0874 2.34311 10.0447C2.48325 9.95083 2.57787 9.79541 2.74218 9.73714C2.94296 9.66318 3.1622 9.73307 3.33496 9.84287V9.84287ZM13.2803 5.81833C13.4196 5.95457 13.5172 6.13377 13.5545 6.32426C13.6005 6.5903 13.586 6.86608 13.4922 7.12079C13.4144 7.37361 13.2844 7.64779 13.0308 7.76461C13.0278 7.6181 12.9944 7.47483 12.9693 7.33099C12.8622 6.76432 12.6956 6.20715 12.4522 5.68315C12.4084 5.58304 12.3592 5.48506 12.2939 5.39686C12.6723 5.36015 13.0006 5.59573 13.2803 5.81833V5.81833ZM14.6524 4.78888C14.854 4.81969 15.03 4.96266 15.1105 5.14729C15.2172 5.39526 15.15 5.71173 14.9288 5.87659C14.728 6.03095 14.4215 6.02557 14.231 5.85664C14.3273 5.76762 14.4361 5.64484 14.404 5.50477C14.308 5.38199 14.117 5.39953 13.9935 5.47024C13.9642 5.27244 14.0335 5.05846 14.1916 4.93002C14.3135 4.81644 14.4878 4.76786 14.6524 4.78888ZM6.78329 3.07387C6.86894 3.10462 6.95356 3.15126 7.00414 3.22982C6.87739 3.2522 6.75932 3.30344 6.63989 3.34824C6.16845 3.53175 5.70517 3.73682 5.26039 3.977C5.06459 4.08355 4.8684 4.1934 4.69946 4.33962C4.57841 4.44622 4.43559 4.52933 4.33305 4.65535C4.29794 4.32828 4.3643 3.98213 4.56508 3.71498C4.65244 3.57355 4.79443 3.48235 4.90869 3.36529C5.06674 3.22091 5.26259 3.12216 5.46498 3.05387C5.60073 3.03067 5.72802 2.96887 5.86703 2.9632C6.17529 2.95269 6.49003 2.97158 6.78325 3.07382L6.78329 3.07387ZM3.4478 0.00553791C3.61948 0.0468029 3.80063 0.113156 3.90429 0.264025C4.08491 0.516846 4.05551 0.875735 3.86918 1.11751L3.85502 1.10347C3.81313 1.06191 3.77236 1.01764 3.72172 0.986356C3.66596 0.949934 3.577 0.980979 3.56176 1.0468C3.54194 1.14342 3.58871 1.23569 3.63549 1.31744C3.47094 1.35086 3.29194 1.37329 3.13305 1.30505C2.89501 1.20789 2.71113 0.976378 2.69072 0.71978C2.7038 0.507934 2.8205 0.311489 2.96928 0.163623C3.10204 0.0594923 3.2748 -0.0228439 3.4478 0.00553791V0.00553791Z" fill="#9B99A6"/>
<path d="M2.64619 12.4037C2.64619 12.5229 2.54307 12.6044 2.45088 12.663C2.32246 12.7412 2.18994 12.8125 2.06431 12.895C1.93345 12.9781 1.81294 13.0771 1.6731 13.1463C1.63013 13.013 1.5436 12.8891 1.41602 12.8238C1.5749 12.571 1.83525 12.4064 2.02944 12.1838C2.08931 12.1193 2.14209 12.0394 2.22534 12.003C2.44409 11.9865 2.66494 12.1805 2.64619 12.4037V12.4037ZM14.4041 5.50488C14.4361 5.64485 14.3273 5.76768 14.2311 5.8567C14.0202 6.0313 13.7985 6.19777 13.5545 6.32432C13.5172 6.13383 13.4196 5.95463 13.2803 5.81839C13.5031 5.67348 13.765 5.60524 13.9936 5.4703C14.1171 5.39959 14.308 5.38206 14.4041 5.50483V5.50488ZM3.72178 0.986418C3.77241 1.01771 3.81318 1.06197 3.85508 1.10353C3.93125 1.19608 4.01963 1.27702 4.10181 1.3642C4.43613 1.72875 4.73706 2.12159 5.0542 2.50044C5.19986 2.67631 5.34388 2.85352 5.48623 3.03204L5.46499 3.05388C5.2626 3.12217 5.06675 3.22093 4.90869 3.3653C4.84067 3.29595 4.79443 3.21095 4.74272 3.12997C4.46172 2.68501 4.18887 2.23468 3.93511 1.77384C3.84556 1.61513 3.72749 1.47453 3.63555 1.31751C3.58877 1.23575 3.54199 1.14349 3.56182 1.04686C3.57705 0.980994 3.66602 0.949997 3.72178 0.986418V0.986418Z" fill="#F79727"/>
<path d="M7.63723 3.11197C7.97561 3.05826 8.31922 3.07259 8.66062 3.07797C9.66306 3.14568 10.6631 3.52806 11.3883 4.22937C11.4904 4.29897 11.5526 4.40746 11.6427 4.48945C11.8989 4.76228 12.0945 5.0831 12.2939 5.39694C12.3592 5.48514 12.4084 5.58312 12.4522 5.68318C12.6957 6.20723 12.8622 6.76445 12.9694 7.33107C12.9944 7.47491 13.0279 7.61818 13.0309 7.76469C13.0186 8.01727 13.0752 8.26985 13.0401 8.52184C13.023 8.65842 13.0385 8.79709 13.0132 8.93256C12.974 9.18702 12.8614 9.42149 12.7477 9.65004C12.6932 9.76391 12.5736 9.82087 12.4735 9.88833C12.3714 9.95415 12.2363 10.0143 12.1177 9.95386C11.9302 9.84809 11.8399 9.63653 11.7972 9.43636C11.7501 9.25066 11.7664 9.05858 11.7637 8.8694C11.7341 8.34109 11.7044 7.80872 11.5864 7.29087C11.5072 6.95145 11.3717 6.60927 11.1075 6.36914C10.9403 6.22907 10.7488 6.11603 10.5431 6.04154C10.2354 5.95087 9.91467 5.89827 9.59314 5.90501C9.20496 5.89638 8.82249 5.97707 8.44895 6.07394C8.07112 6.17134 7.71419 6.33112 7.36165 6.49487C7.08172 6.61256 6.81702 6.76067 6.54798 6.90016C6.39729 6.98085 6.24817 7.06556 6.11243 7.16945C5.86682 7.35538 5.60266 7.52398 5.40134 7.76014C5.19949 7.99625 5.02024 8.26607 4.95901 8.57449C4.88206 9.02831 4.96965 9.4952 5.13259 9.92151C5.31892 10.3921 5.59724 10.8252 5.94187 11.1972C6.18015 11.4935 6.49739 11.7105 6.80506 11.9296C6.97346 12.0391 7.08386 12.2329 7.08528 12.4334C7.06946 12.6007 6.9408 12.7318 6.80803 12.8233C6.66497 12.9109 6.49768 12.9679 6.3282 12.9628C5.93128 12.9593 5.53113 12.9123 5.15437 12.785C4.99548 12.7321 4.84939 12.6503 4.69788 12.581C4.84534 12.4455 4.97454 12.2626 4.96882 12.0548C4.96419 11.8387 4.89348 11.6298 4.80369 11.4347C4.67693 11.1678 4.51863 10.9155 4.33987 10.68C4.07327 10.3303 3.71419 10.0621 3.33499 9.84295C3.16223 9.73315 2.94299 9.66326 2.74221 9.73722C2.57791 9.79549 2.48323 9.95091 2.34314 10.0448C2.30208 9.92635 2.32136 9.79873 2.30481 9.67649C2.28411 9.53375 2.29553 9.38938 2.28167 9.2464C2.25965 9.04913 2.27024 8.85022 2.26673 8.65218C2.26101 8.265 2.26834 7.8756 2.32844 7.49221C2.3867 7.13627 2.53411 6.80223 2.70115 6.4846C2.8823 6.14843 3.11355 5.83972 3.37468 5.56016C3.51751 5.39719 3.66985 5.24147 3.83963 5.10605C3.99221 4.94284 4.19026 4.82756 4.33308 4.65543C4.43562 4.52941 4.57844 4.4463 4.69949 4.3397C4.86843 4.19343 5.06458 4.08363 5.26043 3.97708C5.70525 3.7369 6.16848 3.53184 6.63992 3.34832C6.75935 3.30357 6.87742 3.25228 7.00418 3.2299C7.21936 3.21397 7.42229 3.13086 7.63723 3.11197V3.11197Z" fill="#787880"/>
<path d="M19.4495 10.9131C19.5608 11.0726 19.5613 11.2749 19.5586 11.4611C19.8023 11.1665 20.1027 10.8977 20.4759 10.7817C20.959 10.6335 21.505 10.6959 21.9408 10.9511C22.2398 11.1209 22.4778 11.385 22.6372 11.6859C22.8693 12.1098 22.9416 12.6017 22.9307 13.0788C22.9182 13.5963 22.783 14.1236 22.4781 14.5496C22.1868 14.9573 21.7153 15.2326 21.2131 15.2809C20.8304 15.3165 20.4204 15.2652 20.0983 15.0429C19.8908 14.9106 19.7254 14.7277 19.5599 14.5491C19.557 15.1114 19.5608 15.6738 19.558 16.2361C19.5537 16.4406 19.5289 16.667 19.3826 16.8243C19.2673 16.9485 19.085 16.9776 18.9231 16.9603C18.7947 16.9498 18.6557 16.8991 18.5904 16.7817C18.5034 16.6238 18.486 16.4393 18.4813 16.2625C18.4808 14.6163 18.4813 12.9703 18.4808 11.324C18.4816 11.1435 18.5175 10.9431 18.6593 10.8165C18.884 10.6208 19.2828 10.6611 19.4495 10.9131ZM9.28768 9.11897C9.45306 9.25168 9.49901 9.47486 9.50091 9.67591C9.50335 10.2417 9.50228 10.8076 9.5015 11.3734C9.69788 11.1581 9.91878 10.9533 10.1927 10.8405C10.5352 10.6991 10.9215 10.6697 11.2844 10.7391C11.6639 10.8114 12.0121 11.0453 12.2014 11.3821C12.3897 11.677 12.4122 12.0367 12.4193 12.3764C12.4207 13.0961 12.419 13.8157 12.4201 14.5353C12.4228 14.7102 12.4104 14.8953 12.3157 15.048C12.1318 15.3559 11.6133 15.3812 11.4033 15.0904C11.3042 14.9444 11.2852 14.7625 11.2841 14.5912C11.2836 13.9609 11.2841 13.3305 11.2839 12.7002C11.2808 12.4026 11.258 12.0874 11.1008 11.8259C10.9618 11.6079 10.6769 11.5542 10.4356 11.5709C10.0075 11.5928 9.63421 11.9403 9.55477 12.3532C9.51561 12.5564 9.50721 12.7641 9.50252 12.9706C9.50091 13.5191 9.50365 14.0677 9.5012 14.6166C9.49901 14.8059 9.45985 15.0129 9.31624 15.1495C9.17806 15.2852 8.96693 15.3119 8.78275 15.279C8.6639 15.2582 8.55155 15.1942 8.48294 15.0947C8.38612 14.9566 8.36302 14.7828 8.36112 14.6185C8.36136 13.0345 8.36136 11.4509 8.36136 9.86693C8.36058 9.6654 8.3494 9.45089 8.44705 9.26655C8.59696 8.96869 9.03768 8.92389 9.28768 9.11897V9.11897ZM24.7906 10.8491C24.9305 10.9752 24.98 11.1694 24.9775 11.3513C24.9775 12.4393 24.9781 13.5275 24.9773 14.6155C24.9762 14.7987 24.937 14.997 24.8015 15.1311C24.6519 15.2879 24.4063 15.3289 24.2047 15.259C24.0477 15.2043 23.9299 15.0666 23.8812 14.9112C23.8227 14.7377 23.841 14.5529 23.8385 14.3734C23.8396 13.3483 23.8356 12.3235 23.8405 11.2987C23.8409 11.0502 23.9841 10.7822 24.2428 10.7223C24.431 10.6751 24.6481 10.7118 24.7907 10.8491H24.7906ZM16.0157 10.6996C16.4131 10.7409 16.8424 10.8383 17.1223 11.1433C17.3916 11.4425 17.452 11.8629 17.473 12.249C17.4825 12.7504 17.4708 13.252 17.4694 13.7533C17.4705 14.021 17.5407 14.2814 17.6193 14.5353C17.6563 14.6824 17.72 14.8462 17.6428 14.9913C17.5404 15.1826 17.3187 15.3116 17.0989 15.2887C16.9895 15.2766 16.893 15.2156 16.8141 15.1427C16.6596 14.9984 16.5445 14.8194 16.4313 14.643C16.0617 14.9309 15.6444 15.1875 15.1723 15.2598C14.7567 15.3243 14.3054 15.3028 13.9357 15.0855C13.6221 14.9099 13.3908 14.5941 13.3285 14.2415C13.2801 13.9603 13.3198 13.6576 13.4697 13.4112C13.6041 13.1891 13.8136 13.0165 14.0513 12.912C14.3011 12.7976 14.5772 12.7653 14.843 12.7053C15.3508 12.6039 15.8571 12.4927 16.3549 12.3502C16.3432 12.1119 16.3122 11.8556 16.1625 11.66C16.019 11.497 15.7839 11.4714 15.579 11.4617C15.2942 11.4576 14.9792 11.4722 14.7477 11.6581C14.5342 11.816 14.4294 12.0666 14.27 12.2704C14.2007 12.3564 14.0771 12.3573 13.9757 12.3586C13.7673 12.361 13.5559 12.2126 13.5206 12.0032C13.4936 11.8135 13.5489 11.6201 13.6432 11.4557C13.8114 11.1527 14.1223 10.9611 14.4398 10.8408C14.9419 10.6581 15.4893 10.6557 16.0157 10.6996V10.6996ZM16.3582 13.0256C15.909 13.1765 15.4384 13.245 14.9798 13.3599C14.8037 13.4077 14.6291 13.5024 14.5241 13.6541C14.3908 13.8766 14.449 14.1859 14.6457 14.354C14.828 14.5254 15.097 14.5553 15.3361 14.5237C15.6868 14.4797 16.047 14.3025 16.22 13.9843C16.3647 13.6872 16.3533 13.3475 16.3581 13.0256H16.3582ZM20.5162 11.5617C20.208 11.6214 19.9455 11.8389 19.7986 12.1098C19.625 12.4393 19.5984 12.823 19.6196 13.1878C19.6422 13.5515 19.7689 13.9282 20.0537 14.1729C20.3049 14.4028 20.6816 14.4854 21.0075 14.3834C21.2407 14.31 21.4362 14.1411 21.5578 13.9323C21.7752 13.5715 21.8111 13.1344 21.7755 12.7242C21.7414 12.3637 21.6087 11.9895 21.3201 11.7525C21.1009 11.5685 20.7956 11.5024 20.5162 11.5617ZM24.7689 9.16944C25.0048 9.32864 25.0331 9.67886 24.8998 9.91173C24.7113 10.2155 24.2341 10.2469 23.9855 10.0002C23.8494 9.87041 23.8165 9.66646 23.85 9.48891C23.8892 9.28355 24.0684 9.12353 24.2684 9.07388C24.4387 9.03344 24.6272 9.06555 24.7689 9.16944V9.16944Z" fill="#464646"/>
</g>
<defs>
<clipPath id="clip0_91_64">
<rect width="25" height="17" fill="white"/>
</clipPath>
</defs>
</svg>
