<svg width="102" height="23" viewBox="0 0 102 23" fill="none" xmlns="http://www.w3.org/2000/svg">
<g clip-path="url(#clip0_91_21)">
<path fill-rule="evenodd" clip-rule="evenodd" d="M97.561 1.71429L101.828 1.73769C101.828 1.73769 93.8946 12.4374 93.2467 13.3095C93.0364 13.5918 92.7168 13.8964 92.5547 14.2739C92.1449 15.2228 91.7241 17.3045 91.7241 17.3045L87.8196 17.324C87.8196 17.324 88.4272 15.154 88.4021 13.9983C88.3802 12.9887 87.8623 11.9802 87.5718 10.9676C87.2781 9.94254 86.8795 7.93679 86.8795 7.93679H90.8938L91.4474 10.141L97.561 1.71429" fill="#1A1918"/>
<path fill-rule="evenodd" clip-rule="evenodd" d="M89.4805 3.97088C90.268 4.44337 90.7513 7.04991 90.7513 7.04991C90.7513 7.04991 86.6307 7.11038 84.3883 7.11038H82.4505L80.0973 17.3045H76.4986C76.4986 17.3045 78.7382 6.22607 79.267 4.21754C79.4383 3.56719 80.4408 3.67882 82.1335 3.67882H84.8367C86.5823 3.67882 88.6225 3.45695 89.4805 3.97088M72.7268 8.93571C72.7268 8.93571 72.839 8.2814 72.3463 7.52359C71.9254 6.87761 71.5367 6.72731 70.4292 6.69281C67.3025 6.59506 67.3632 8.90121 67.3632 8.90121L72.7268 8.93571ZM76.1179 6.29467C76.5761 7.93977 75.7027 11.8052 75.7027 11.8052C75.7027 11.8052 71.1418 11.7294 68.6436 11.8052C67.8669 11.8288 66.9371 11.7211 66.7058 12.0808C66.3805 12.5848 66.8248 13.3606 67.2013 13.6884C67.6346 14.0657 68.4787 14.1087 68.7821 14.147C70.8097 14.4034 75.0535 14.2132 75.0535 14.2132L74.3184 17.453C74.3184 17.453 68.3213 17.7524 65.3217 17.0398C64.7294 16.8995 64.1742 16.6157 63.799 16.2134C63.6966 16.1034 63.6078 15.9533 63.511 15.8236C63.4337 15.7201 63.2081 15.3801 63.1069 15.1112C62.4218 13.2942 63.1872 9.81328 63.9375 7.9479C64.0245 7.73178 64.1339 7.45756 64.2491 7.22459C64.3929 6.93411 64.5146 6.60617 64.6296 6.43248C64.7069 6.31272 64.8027 6.23559 64.883 6.12257C64.9756 5.98893 65.0834 5.85946 65.1832 5.74386C65.4601 5.42424 65.7743 5.19821 66.1522 4.91745C67.4019 3.98595 69.6636 3.26284 72.3808 3.53963C73.4038 3.64432 74.9487 4.00796 75.7027 5.05505C75.9047 5.33462 76.0046 5.88979 76.1179 6.29487V6.29467ZM59.612 3.66613L63.1016 3.64571C63.1016 3.64571 61.1568 12.8273 60.1657 17.3045H56.1514C53.346 17.3045 50.8476 17.6503 49.7846 15.6513C48.7534 13.7104 49.7376 10.5185 50.1998 8.35C50.5265 6.81535 51.2146 3.67862 51.2146 3.67862L54.83 3.64571C54.83 3.64571 53.8084 8.52924 53.3833 10.9676C53.2311 11.841 52.9171 12.6635 53.245 13.3093C53.5564 13.9239 53.9925 13.968 55.3211 13.9983C55.742 14.0082 57.1206 13.9983 57.1206 13.9983L59.612 3.66613M43.2791 10.2786C43.6445 8.98667 44.1774 7.58565 44.1096 6.42137C44.0363 5.1762 42.9872 4.04246 42.3103 3.80413C40.2715 3.08776 38.3628 4.08925 37.6041 4.90615C36.6228 5.96415 36.2905 7.2 35.9431 8.90141C35.6845 10.1644 35.4725 11.4978 35.9431 12.4829C36.7762 14.2243 39.3744 13.844 42.1718 13.8607C42.587 12.7531 42.9303 11.5091 43.2791 10.2786V10.2786ZM48.1237 5.18175C48.5221 8.06627 46.9929 11.2502 45.9395 14.0189C47.0136 14.1155 47.955 14.004 48.0227 14.0837C48.0932 14.187 47.3027 17.3886 47.0272 17.3969C46.1747 17.4189 43.3498 17.4423 42.1718 17.4423C38.3279 17.4423 34.732 17.6916 32.8982 15.7893C32.1535 15.0164 31.6385 13.691 31.5138 12.7585C31.3062 11.2018 31.5664 9.48791 31.9292 8.07479C32.2573 6.79889 32.6779 5.59496 33.3134 4.49274C34.9286 1.68674 37.7384 -0.396144 42.4485 0.0846745C43.3622 0.178261 44.6742 0.576399 45.4938 1.04889C45.5504 1.082 45.7486 1.23904 45.794 1.2666C46.9015 1.9679 47.9105 3.64155 48.1237 5.18175V5.18175ZM31.1166 3.68279C30.8841 4.73662 30.6516 5.93123 30.4066 6.97258H26.531C26.8312 5.81822 27.0611 4.6706 27.3615 3.66633C28.6017 3.66633 29.7547 3.68279 31.1168 3.68279M26.3925 7.93699H30.1299C29.6412 10.6288 28.6736 14.9708 27.9151 17.9933C27.4404 19.8849 27.1234 21.2651 25.8389 22.2638C25.7239 22.3534 25.6576 22.3108 25.562 22.4016C25.3253 22.6263 24.2304 22.8868 23.6244 22.9526C22.6388 23.0589 21.5246 22.9665 20.3134 22.9417C20.6303 21.7887 20.9889 20.4042 21.2714 19.3708C24.2238 19.7265 24.2985 16.949 24.8701 14.2739C25.2008 12.7281 26.2031 8.5568 26.3925 7.93699" fill="#1A1918"/>
<path fill-rule="evenodd" clip-rule="evenodd" d="M17.6724 14.9629L17.5923 15.1693C16.2276 17.8143 13.8093 19.4372 10.36 19.5088C8.74755 19.5417 7.21117 19.1301 6.20751 18.6822C4.0416 17.714 2.21975 15.9176 1.22485 13.9985C-0.202353 11.2474 -0.459743 7.4203 2.50782 4.56195C2.55364 4.56195 2.14783 5.18176 2.19365 5.18176L2.11197 5.44626C-0.0264426 12.1097 6.56192 17.8199 12.9664 17.1667C14.5056 17.0099 16.4683 16.171 17.6724 14.9629Z" fill="#21609B"/>
<path fill-rule="evenodd" clip-rule="evenodd" d="M13.7967 12.2075C15.408 12.2186 17.091 11.4691 18.0877 10.4167C17.2157 12.6195 14.691 14.0356 11.3055 13.5851C8.47058 13.2076 5.77017 10.3685 5.49206 7.52383C5.28866 5.45323 6.01361 4.21758 7.20833 2.71881C6.79316 3.5026 6.63797 4.10734 6.59932 4.49298C6.1455 8.97164 10.194 12.1841 13.7967 12.2075" fill="#21609B"/>
<path fill-rule="evenodd" clip-rule="evenodd" d="M17.9258 6.64484C17.6754 7.21667 16.2332 8.29648 15.5963 8.43131C13.0744 8.96606 11.4594 7.77581 10.6133 6.42158C10.4876 6.21914 10.2551 5.66675 10.2134 5.52617C9.88533 4.41583 10.0361 2.73643 11.0149 1.86719C10.7201 2.694 10.677 3.65385 10.8322 4.27802C10.9262 4.65554 11.2127 5.31421 11.4994 5.72861C12.021 6.48364 12.3517 6.66705 13.0218 7.06777C13.3236 7.2482 13.6474 7.39294 13.7872 7.43279C14.4225 7.61877 15.7639 8.10931 17.926 6.64484" fill="#21609B"/>
</g>
<defs>
<clipPath id="clip0_91_21">
<rect width="102" height="23" fill="white"/>
</clipPath>
</defs>
</svg>
