<svg width="19" height="27" viewBox="0 0 19 27" fill="none" xmlns="http://www.w3.org/2000/svg">
<g clip-path="url(#clip0_91_2)">
<path d="M18.967 5.29272L17.2421 24.7656L9.48848 26.9318L1.75622 24.7686L0.0330811 5.29272H18.967Z" fill="#E44D26"/>
<path d="M9.5 25.276L15.7653 23.5257L17.2393 6.88513H9.5V25.276Z" fill="#F16529"/>
<path d="M6.14685 11.6625H9.50006V9.27386H3.5564L3.6131 9.91468L4.19572 16.4971H9.50006V14.1085H6.3635L6.14685 11.6625V11.6625ZM6.68108 17.6915H4.30163L4.63368 21.442L9.48915 22.8003L9.50006 22.7973V20.3121L9.48967 20.3148L6.84985 19.5965L6.68108 17.6915Z" fill="#EBEBEB"/>
<path d="M1.79456 0H2.99913V1.19929H4.10105V0H5.3057V3.63176H4.10113V2.41564H2.9992V3.63176H1.79463V0H1.79456ZM6.88967 1.20438H5.82938V0H9.15542V1.20438H8.09447V3.63176H6.8899V1.20438H6.88982H6.88967ZM9.68327 0H10.9393L11.7119 1.27611L12.4838 0H13.7403V3.63176H12.5406V1.83166L11.7119 3.12295H11.6911L10.8619 1.83166V3.63176H9.68327V0ZM14.3398 0H15.5447V2.43135H17.2387V3.63176H14.3397V0H14.3398Z" fill="black"/>
<path d="M9.4919 16.4971H12.4107L12.1355 19.595L9.49182 20.3141V22.7991L14.3511 21.442L14.3868 21.0385L14.9439 14.7499L15.0017 14.1085H9.4919V16.4971ZM9.4919 11.6567V11.6625H15.2174L15.2649 11.1256L15.3729 9.91468L15.4295 9.27386H9.4919V11.6567V11.6567Z" fill="white"/>
</g>
<defs>
<clipPath id="clip0_91_2">
<rect width="19" height="27" fill="white"/>
</clipPath>
</defs>
</svg>
