<svg width="34" height="29" viewBox="0 0 34 29" fill="none" xmlns="http://www.w3.org/2000/svg">
<path d="M7.06191 0C5.12191 0 3.68634 1.81808 3.75062 3.78974C3.81238 5.6839 3.73216 8.13735 3.15536 10.138C2.57683 12.1445 1.59827 13.4155 0 13.5788V15.4212C1.59827 15.5844 2.57683 16.8555 3.15536 18.8621C3.73216 20.8628 3.81238 23.316 3.75062 25.2103C3.68634 27.1816 5.12191 29 7.06217 29H26.9406C28.8807 29 30.3159 27.1819 30.2516 25.2103C30.19 23.3161 30.2701 20.8628 30.8469 18.8621C31.4258 16.8556 32.4017 15.5843 34 15.4212V13.5788C32.4017 13.4155 31.4258 12.1445 30.847 10.138C30.2701 8.13764 30.19 5.68405 30.2516 3.78974C30.3159 1.81837 28.8807 0 26.9406 0H7.06164H7.06191V0ZM23.0509 17.8513C23.0509 20.5663 21.1597 22.2127 18.0211 22.2127H12.678C12.5252 22.2127 12.3787 22.1477 12.2706 22.032C12.1626 21.9162 12.1019 21.7593 12.1019 21.5957V7.40429C12.1019 7.32325 12.1168 7.243 12.1457 7.16812C12.1747 7.09325 12.2171 7.02521 12.2706 6.9679C12.3241 6.91059 12.3877 6.86512 12.4576 6.83411C12.5275 6.80309 12.6025 6.78712 12.6781 6.78712H17.9905C20.6076 6.78712 22.3251 8.30516 22.3251 10.6356C22.3251 12.2714 21.1696 13.7358 19.6977 13.9922V14.0777C21.7017 14.313 23.0509 15.7989 23.0509 17.8513V17.8513ZM17.4383 8.74314H14.392V13.3506H16.9579C18.9413 13.3506 20.0352 12.4953 20.0352 10.9667C20.0352 9.53423 19.0946 8.74314 17.4384 8.74314H17.4383ZM14.392 15.1787V20.2561H17.5505C19.6155 20.2561 20.7096 19.3689 20.7096 17.7014C20.7096 16.0337 19.5851 15.1785 17.4177 15.1785H14.392V15.1787Z" fill="#7E13F8"/>
</svg>
