<svg width="24" height="24" viewBox="0 0 24 24" fill="none" xmlns="http://www.w3.org/2000/svg">
<g clip-path="url(#clip0_91_77)">
<path fill-rule="evenodd" clip-rule="evenodd" d="M3.45388e-07 11.9999C7.72987e-05 9.92919 0.535967 7.89377 1.55556 6.09152C2.57516 4.28928 4.04376 2.78153 5.81857 1.71488C7.59338 0.648243 9.61399 0.0590058 11.6839 0.00446881C13.7539 -0.0500682 15.8027 0.431951 17.6313 1.40366C19.4598 2.37536 21.0057 3.80369 22.1188 5.54975C23.2319 7.2958 23.8742 9.30018 23.9833 11.368C24.0924 13.4358 23.6646 15.4966 22.7415 17.3501C21.8183 19.2036 20.4313 20.7867 18.7152 21.9455L7.8512 6.73586C7.75276 6.59791 7.61306 6.49479 7.45224 6.44136C7.29142 6.38793 7.11778 6.38694 6.95636 6.43855C6.79495 6.49017 6.65409 6.5917 6.5541 6.72853C6.45411 6.86535 6.40015 7.03039 6.4 7.19986V19.1999H8V9.69586L17.328 22.7551C15.4982 23.6617 13.4674 24.0865 11.4276 23.9891C9.38788 23.8917 7.40673 23.2754 5.67169 22.1985C3.93666 21.1215 2.50515 19.6197 1.51265 17.835C0.520154 16.0504 -0.000489539 14.0419 3.45388e-07 11.9999V11.9999ZM16 15.9999V6.39986H17.6V15.9999H16Z" fill="black"/>
</g>
<defs>
<clipPath id="clip0_91_77">
<rect width="24" height="24" fill="white"/>
</clipPath>
</defs>
</svg>
