<svg width="27" height="27" viewBox="0 0 27 27" fill="none" xmlns="http://www.w3.org/2000/svg">
<path d="M22.7812 13.5H16.875V15.1875H20.925C20.6354 16.439 20.0353 17.5975 19.18 18.556C18.3247 19.5145 17.2419 20.2422 16.0312 20.6719L6.32812 10.9687C6.85228 9.4862 7.82374 8.20294 9.1084 7.29613C10.3931 6.38931 11.9275 5.90367 13.5 5.90624C14.719 5.91481 15.919 6.20939 17.0035 6.76626C18.0879 7.32313 19.0265 8.12676 19.7437 9.11249L21.0094 8.01561C19.9566 6.57728 18.5116 5.47277 16.8474 4.83424C15.1833 4.19572 13.3704 4.05024 11.6257 4.4152C9.88095 4.78016 8.27836 5.64012 7.00966 6.89215C5.74095 8.14418 4.85988 9.73526 4.47188 11.475L15.6094 22.6125C17.6437 22.0996 19.4509 20.9272 20.7484 19.2786C22.046 17.6299 22.7608 15.5979 22.7812 13.5V13.5ZM4.21875 13.5844C4.22143 14.7788 4.46151 15.9608 4.92502 17.0617C5.38854 18.1625 6.06624 19.1602 6.91875 19.9969C8.61787 21.7053 10.9218 22.6754 13.3313 22.6969L4.21875 13.5844Z" fill="white"/>
<path d="M13.5 1.6875C11.1637 1.6875 8.87989 2.38029 6.93733 3.67827C4.99478 4.97624 3.48074 6.8211 2.58668 8.97955C1.69262 11.138 1.45869 13.5131 1.91448 15.8045C2.37027 18.0959 3.4953 20.2007 5.14731 21.8527C6.79931 23.5047 8.9041 24.6297 11.1955 25.0855C13.4869 25.5413 15.862 25.3074 18.0205 24.4133C20.1789 23.5193 22.0238 22.0052 23.3217 20.0627C24.6197 18.1201 25.3125 15.8363 25.3125 13.5C25.3034 10.3699 24.0559 7.37068 21.8426 5.15738C19.6293 2.94408 16.6301 1.69663 13.5 1.6875V1.6875ZM6.91876 20.0813C5.21029 18.3821 4.24021 16.0782 4.21876 13.6688L13.4156 22.7813C10.9859 22.7381 8.66341 21.7729 6.91876 20.0813V20.0813ZM15.525 22.5281L4.47188 11.475C4.85989 9.73528 5.74096 8.1442 7.00966 6.89216C8.27836 5.64013 9.88096 4.78018 11.6257 4.41521C13.3704 4.05025 15.1833 4.19573 16.8475 4.83426C18.5116 5.47278 19.9566 6.57729 21.0094 8.01563L19.7438 9.1125C19.0265 8.12677 18.0879 7.32315 17.0035 6.76628C15.919 6.2094 14.719 5.91483 13.5 5.90625C11.9304 5.91587 10.4015 6.40629 9.11921 7.31145C7.8369 8.21661 6.8628 9.49302 6.32813 10.9688L16.0313 20.6719C17.2419 20.2422 18.3248 19.5145 19.18 18.556C20.0353 17.5975 20.6354 16.439 20.925 15.1875H16.875V13.5H22.7813C22.7698 15.6034 22.0463 17.6408 20.7286 19.2803C19.4109 20.9198 17.5767 22.0646 15.525 22.5281V22.5281Z" fill="#663399"/>
</svg>
