<svg width="67" height="15" viewBox="0 0 67 15" fill="none" xmlns="http://www.w3.org/2000/svg">
<g clip-path="url(#clip0_91_121)">
<path d="M5.53887 3.66974H9.72585L9.07744 6.16592C8.97838 6.51382 8.79308 6.79329 8.52168 7.00421C8.24988 7.21566 7.93491 7.32105 7.57687 7.32105H5.63152C5.18686 7.32105 4.79454 7.45132 4.45509 7.71224C4.11512 7.97303 3.87761 8.32684 3.74178 8.77408C3.65528 9.10934 3.64599 9.42605 3.71404 9.72408C3.78182 10.0221 3.90221 10.2862 4.07521 10.5157C4.24807 10.7457 4.4704 10.9288 4.74233 11.0654C5.01373 11.2022 5.31026 11.2701 5.63152 11.2701H6.8171C7.03957 11.2701 7.22159 11.3604 7.3637 11.5403C7.50556 11.7205 7.54586 11.9221 7.4841 12.1457L6.74317 14.9028H5.44635C4.55703 14.9028 3.73864 14.7071 2.99143 14.3159C2.24409 13.9247 1.62343 13.4064 1.12956 12.7604C0.635439 12.1149 0.298738 11.3791 0.119853 10.5532C-0.0592935 9.72724 -0.0375709 8.87961 0.184759 8.01013L0.258826 7.73079C0.415401 7.1429 0.668995 6.58559 1.00904 6.08211C1.34875 5.57921 1.7501 5.15079 2.21334 4.79684C2.67645 4.4429 3.19217 4.16658 3.76036 3.96789C4.32829 3.76934 4.92108 3.66974 5.53887 3.66974V3.66974ZM7.65081 14.9026L11.3005 1.15513C11.3991 0.8075 11.5844 0.528158 11.8564 0.316842C12.1278 0.105658 12.4426 0 12.8012 0H16.6733C17.5625 0 18.3805 0.195658 19.128 0.586842C19.875 0.978026 20.4957 1.49671 20.9898 2.14224C21.4837 2.78816 21.8235 3.52395 22.0088 4.34974C22.1941 5.17579 22.1691 6.02342 21.9346 6.8925L21.8607 7.17197C21.7 7.76803 21.4531 8.31763 21.1196 8.82066C20.786 9.32355 20.3877 9.75526 19.9246 10.1153C19.4614 10.4755 18.9455 10.755 18.3776 10.9534C17.8094 11.1524 17.2165 11.2516 16.5991 11.2516H13.2458L13.9127 8.73671C14.0115 8.40145 14.1967 8.12842 14.4686 7.91697C14.7401 7.70605 15.055 7.6004 15.4134 7.6004H16.488C16.9325 7.6004 17.3309 7.46382 17.6828 7.19053C18.0349 6.9175 18.2664 6.56355 18.3776 6.12868C18.464 5.81842 18.4731 5.51395 18.4055 5.21592C18.3374 4.91789 18.2171 4.65408 18.0441 4.42421C17.8711 4.19461 17.6487 4.00842 17.3772 3.86539C17.1054 3.72276 16.809 3.65118 16.488 3.65118H14.4128L11.708 13.7664C11.6089 14.1017 11.4236 14.375 11.1521 14.5861C10.8804 14.7974 10.5715 14.9028 10.2257 14.9028H7.65081V14.9026ZM30.7531 7.56316L30.8087 7.35816C30.8333 7.25895 30.818 7.17526 30.7624 7.10684C30.7068 7.03868 30.6296 7.00421 30.5308 7.00421H24.5097C24.2503 7.00421 24.0156 6.94842 23.8057 6.83658C23.5956 6.72474 23.4228 6.57895 23.2871 6.39882C23.151 6.21908 23.0583 6.01092 23.0091 5.77474C22.9595 5.53908 22.9657 5.29684 23.0274 5.04829L23.398 3.6325H31.5498C32.0562 3.6325 32.5193 3.74434 32.9393 3.96789C33.359 4.19132 33.7082 4.48329 33.9861 4.84342C34.2641 5.20368 34.4553 5.61645 34.5603 6.08211C34.6652 6.54789 34.6559 7.02934 34.5326 7.52592L33.0689 13.0026C32.9208 13.5616 32.6213 14.015 32.1705 14.3625C31.7195 14.7104 31.2039 14.8842 30.6234 14.8842L24.6023 14.8655C24.071 14.8655 23.5833 14.7508 23.1388 14.5208C22.694 14.2913 22.3297 13.9871 22.0456 13.6082C21.7615 13.2295 21.564 12.7947 21.4528 12.3042C21.3417 11.8137 21.3541 11.3138 21.4898 10.8045L21.564 10.525C21.65 10.1785 21.7974 9.85034 21.9993 9.55645C22.2032 9.25829 22.4408 9.00382 22.7126 8.79263C22.9869 8.58015 23.2934 8.41345 23.6204 8.29895C23.9539 8.18105 24.3061 8.12197 24.6765 8.12197H29.7342L29.3637 9.51921C29.2647 9.85447 29.0794 10.1278 28.8078 10.3388C28.5361 10.5501 28.2273 10.6554 27.8815 10.6554H25.6212C25.4112 10.6554 25.2753 10.7612 25.2137 10.9722C25.1767 11.1091 25.2013 11.2301 25.2878 11.3354C25.3741 11.4411 25.4852 11.4937 25.6212 11.4937H29.2709C29.4068 11.4937 29.5241 11.4564 29.623 11.382C29.7217 11.3074 29.7833 11.2083 29.8083 11.0839L29.8453 10.9349L30.7531 7.56316V7.56316ZM41.5357 3.66974C42.4369 3.66974 43.2614 3.86539 44.0088 4.25658C44.756 4.64776 45.3765 5.16645 45.8709 5.81211C46.3646 6.4579 46.7013 7.19697 46.8804 8.02882C47.0594 8.86105 47.0316 9.71184 46.7971 10.5809L45.8708 14.0832C45.8087 14.3316 45.6762 14.5301 45.4726 14.6792C45.2687 14.8283 45.0431 14.9028 44.796 14.9028H42.7953C42.5607 14.9028 42.3754 14.8129 42.2396 14.6326C42.1035 14.4528 42.0664 14.2507 42.1283 14.0272L43.24 9.79855C43.3263 9.48829 43.3355 9.18382 43.2677 8.88579C43.1997 8.58763 43.0793 8.32395 42.9065 8.09408C42.7334 7.86434 42.5112 7.67816 42.2396 7.53513C41.9676 7.3925 41.6712 7.32105 41.3504 7.32105H39.2753L37.4781 14.0832C37.4163 14.3316 37.2837 14.5301 37.0799 14.6792C36.876 14.8283 36.6444 14.9028 36.385 14.9028H34.4029C34.1806 14.9028 33.9983 14.8129 33.8564 14.6326C33.7146 14.4528 33.6743 14.2507 33.7359 14.0272L36.4779 3.66974H41.5357V3.66974ZM52.4475 7.21842C52.2994 7.33671 52.1942 7.48868 52.1325 7.675L51.299 10.8417C51.2495 11.0158 51.2805 11.1771 51.3915 11.3261C51.5027 11.4751 51.651 11.5497 51.8363 11.5497H59.5062L58.9134 13.7664C58.8143 14.1017 58.629 14.375 58.3575 14.5861C58.0857 14.7974 57.7768 14.9028 57.4312 14.9028H50.4468C49.9401 14.9028 49.477 14.7942 49.0572 14.5767C48.6371 14.3596 48.2883 14.0678 48.0103 13.7012C47.7325 13.3351 47.5408 12.9188 47.4362 12.4532C47.3313 11.9874 47.3466 11.5124 47.4824 11.028L48.6125 6.79934C48.7359 6.34013 48.9274 5.91776 49.1869 5.53263C49.4462 5.14789 49.7521 4.81868 50.1039 4.54539C50.456 4.27224 50.851 4.05816 51.2895 3.90263C51.727 3.74758 52.1876 3.66882 52.6514 3.66974H57.5979C58.1043 3.66974 58.5675 3.78158 58.9873 4.00513C59.4071 4.22868 59.7564 4.52066 60.0342 4.88066C60.3122 5.24092 60.5002 5.65697 60.5991 6.12868C60.6979 6.60079 60.6855 7.07868 60.5621 7.56316L60.2287 8.82987C60.0805 9.38882 59.7809 9.83908 59.3302 10.1805C58.8791 10.5221 58.3697 10.6928 57.8017 10.6928H52.2067L52.5773 9.31421C52.6636 8.97895 52.8426 8.70592 53.1145 8.49447C53.386 8.28355 53.7009 8.1779 54.0593 8.1779H56.3196C56.5295 8.1779 56.6651 8.0725 56.7271 7.86118L56.8012 7.58171C56.8384 7.44526 56.8134 7.32092 56.7271 7.20921C56.6405 7.09737 56.5295 7.04158 56.3937 7.04158H52.9478C52.7626 7.04158 52.5958 7.10066 52.4475 7.21855V7.21842ZM59.4873 14.9026L63.2111 0.838158C63.2727 0.59 63.4057 0.388158 63.6095 0.232895C63.8132 0.0776316 64.0448 0 64.3043 0H66.2865C66.521 0 66.7093 0.0902632 66.8516 0.270132C66.9934 0.450395 67.0336 0.651974 66.972 0.875526L64.193 11.2516C64.057 11.7983 63.8378 12.2947 63.5353 12.7418C63.2325 13.1889 62.8745 13.5708 62.4607 13.8875C62.0468 14.2042 61.5869 14.4528 61.0806 14.6326C60.574 14.8129 60.0431 14.9028 59.4873 14.9028V14.9026Z" fill="#FF6C2C"/>
</g>
<defs>
<clipPath id="clip0_91_121">
<rect width="67" height="15" fill="white"/>
</clipPath>
</defs>
</svg>
