<svg width="68" height="15" viewBox="0 0 68 15" fill="none" xmlns="http://www.w3.org/2000/svg">
<g clip-path="url(#clip0_91_119)">
<path d="M33.923 3.7469C31.2676 3.7469 29.3532 5.43297 29.3532 7.96203C29.3532 10.4912 31.5082 12.1773 34.1636 12.1773C35.7679 12.1773 37.1821 11.5591 38.0577 10.5169L36.2176 9.48194C35.7317 9.99944 34.9933 10.3015 34.1635 10.3015C33.0115 10.3015 32.0325 9.71612 31.6693 8.7794H38.4087C38.4617 8.51703 38.4929 8.24535 38.4929 7.9597C38.4929 5.43297 36.5784 3.74677 33.923 3.74677V3.7469ZM31.6479 7.14246C31.9484 6.20806 32.7711 5.62022 33.9207 5.62022C35.0729 5.62022 35.8955 6.20806 36.1937 7.14246H31.6479ZM59.8225 3.74677C57.1671 3.74677 55.2525 5.43297 55.2525 7.96203C55.2525 10.4912 57.4075 12.1773 60.063 12.1773C61.6672 12.1773 63.0814 11.5591 63.9571 10.5169L62.1169 9.48194C61.6311 9.99944 60.8928 10.3015 60.063 10.3015C58.9108 10.3015 57.9319 9.71612 57.5688 8.7794H64.3078C64.3608 8.51703 64.392 8.24535 64.392 7.9597C64.392 5.43297 62.4775 3.74677 59.8222 3.74677H59.8225ZM57.5495 7.14246C57.8502 6.20806 58.6727 5.62022 59.8225 5.62022C60.9745 5.62022 61.7971 6.20806 62.0953 7.14246H57.5495ZM48.1619 7.96203C48.1619 9.36711 49.1049 10.3038 50.5672 10.3038C51.5581 10.3038 52.3013 9.86599 52.6838 9.15168L54.531 10.1891C53.7661 11.4303 52.3326 12.1773 50.5672 12.1773C47.9095 12.1773 45.9974 10.4911 45.9974 7.96203C45.9974 5.43297 47.9118 3.7469 50.5672 3.7469C52.3326 3.7469 53.7637 4.49392 54.531 5.73504L52.6838 6.7725C52.3013 6.05819 51.5581 5.62035 50.5672 5.62035C49.1073 5.62035 48.1619 6.55694 48.1619 7.96216V7.96203ZM68 1.17091V11.9431H65.8353V1.17091H68ZM8.88728 0L17.7744 14.9875H0L8.88728 0ZM31.1065 1.17091L24.4417 12.4115L17.7768 1.17091H20.276L24.4417 8.19634L28.6075 1.17091H31.1065V1.17091ZM45.2756 3.98108V6.25022C45.0351 6.18233 44.7803 6.13552 44.506 6.13552C43.1085 6.13552 42.1008 7.07224 42.1008 8.47733V11.9431H39.9361V3.98108H42.1008V6.13539C42.1008 4.94573 43.5223 3.98108 45.2756 3.98108V3.98108Z" fill="black"/>
</g>
<defs>
<clipPath id="clip0_91_119">
<rect width="68" height="15" fill="white"/>
</clipPath>
</defs>
</svg>
