<svg width="32" height="32" viewBox="0 0 32 32" fill="none" xmlns="http://www.w3.org/2000/svg">
<path d="M22.292 11.717H22.282C22.2754 11.7154 22.2695 11.712 22.265 11.707C22.2567 11.6979 22.2505 11.6871 22.2471 11.6753C22.2436 11.6635 22.2429 11.6511 22.245 11.639L22.81 8.18797L25.461 10.836L22.7 12C22.6924 12.0031 22.6842 12.0048 22.676 12.005H22.67C22.67 12.005 22.663 12.005 22.656 11.994C22.5525 11.8803 22.4291 11.7865 22.292 11.717V11.717ZM26.136 11.507L28.97 14.338C29.559 14.926 29.853 15.22 29.961 15.56C29.9769 15.6098 29.9899 15.6606 30 15.712L23.228 12.848H23.217C23.19 12.837 23.158 12.824 23.158 12.796C23.158 12.768 23.19 12.755 23.217 12.744H23.225L26.136 11.507ZM29.884 16.621C29.6263 17.0068 29.319 17.3571 28.97 17.663L25.776 20.853L21.644 19.993H21.622C21.586 19.987 21.546 19.981 21.546 19.947C21.53 19.7767 21.4793 19.6116 21.3969 19.4618C21.3145 19.3119 21.2022 19.1806 21.067 19.076C21.05 19.059 21.055 19.033 21.059 19.008V18.998L21.837 14.232V14.216C21.837 14.18 21.848 14.137 21.882 14.137C22.0485 14.1163 22.2092 14.0626 22.3548 13.9792C22.5004 13.8957 22.628 13.7842 22.73 13.651C22.7351 13.6429 22.7419 13.6361 22.75 13.631C22.7753 13.6244 22.8023 13.6279 22.825 13.641L29.884 16.621ZM25.041 21.587L19.788 26.835L20.688 21.314V21.286C20.695 21.268 20.714 21.261 20.733 21.253H20.742C20.9387 21.1691 21.1128 21.04 21.25 20.876C21.2662 20.8539 21.2895 20.838 21.316 20.831C21.323 20.83 21.33 20.83 21.337 20.831L25.041 21.587ZM18.676 27.945L18.084 28.537L11.538 19.086L11.53 19.076C11.5181 19.0644 11.5113 19.0486 11.511 19.032C11.5133 19.02 11.5188 19.009 11.527 19L11.534 18.991C11.554 18.962 11.571 18.933 11.59 18.901L11.605 18.876C11.6132 18.8582 11.6264 18.8433 11.643 18.833C11.6602 18.827 11.6788 18.827 11.696 18.833L18.949 20.327C18.9693 20.3303 18.9886 20.3385 19.005 20.351C19.0126 20.3597 19.0175 20.3705 19.019 20.382V20.396C19.0712 20.5845 19.1658 20.7585 19.2956 20.9048C19.4255 21.0511 19.587 21.1657 19.768 21.24C19.788 21.25 19.779 21.273 19.768 21.297C19.7634 21.3077 19.7598 21.3187 19.757 21.33C19.67 21.883 18.886 26.657 18.676 27.945V27.945ZM17.439 29.18C17.1724 29.5026 16.8355 29.7598 16.454 29.932C16.167 30.023 15.859 30.023 15.572 29.932C15.231 29.824 14.937 29.532 14.348 28.942L7.774 22.375L9.491 19.714C9.49812 19.7007 9.50801 19.6891 9.52 19.68C9.53047 19.675 9.54191 19.6724 9.5535 19.6724C9.56509 19.6724 9.57653 19.675 9.587 19.68C9.75574 19.732 9.93143 19.758 10.108 19.757C10.3401 19.7557 10.5697 19.7091 10.784 19.62C10.7923 19.6148 10.8018 19.6121 10.8115 19.6121C10.8212 19.6121 10.8307 19.6148 10.839 19.62C10.8465 19.6275 10.8535 19.6355 10.86 19.644L17.439 29.18ZM7.139 21.742L5.632 20.235L8.611 18.966C8.61894 18.9646 8.62706 18.9646 8.635 18.966C8.66 18.966 8.674 18.991 8.688 19.014L8.698 19.03C8.726 19.073 8.755 19.111 8.783 19.148L8.792 19.16C8.8 19.172 8.792 19.184 8.786 19.197L7.139 21.742ZM4.965 19.569L3.057 17.663C2.732 17.339 2.497 17.104 2.334 16.901L8.134 18.101H8.156C8.192 18.107 8.232 18.113 8.232 18.147C8.232 18.181 8.189 18.2 8.152 18.215L8.135 18.222L4.965 19.569ZM2 15.921C2.00706 15.7981 2.02923 15.6765 2.066 15.559C2.174 15.219 2.466 14.925 3.057 14.337L5.5 11.9C5.9 12.49 8.561 16.326 8.871 16.77L8.881 16.783C8.901 16.81 8.923 16.839 8.901 16.861C8.78952 16.9772 8.69248 17.1065 8.612 17.246C8.60377 17.2636 8.59142 17.2791 8.576 17.291C8.56607 17.295 8.55494 17.295 8.545 17.291L2 15.921ZM6.152 11.246L9.435 7.96597C9.744 8.10097 10.867 8.57497 11.871 8.99897C12.632 9.31997 13.325 9.61297 13.542 9.70597C13.5528 9.70871 13.5629 9.71369 13.5717 9.72058C13.5805 9.72747 13.5878 9.73612 13.593 9.74597C13.5975 9.76029 13.5975 9.77565 13.593 9.78997C13.5711 9.89355 13.5601 9.99911 13.56 10.105C13.5602 10.4862 13.7095 10.8523 13.976 11.125C13.998 11.146 13.976 11.178 13.957 11.206L13.947 11.221L10.614 16.379C10.6065 16.3931 10.5959 16.4054 10.583 16.415C10.573 16.4192 10.5623 16.4213 10.5515 16.4213C10.5407 16.4213 10.53 16.4192 10.52 16.415C10.3894 16.3807 10.255 16.3626 10.12 16.361C9.9919 16.3652 9.86442 16.3806 9.739 16.407C9.73294 16.41 9.72626 16.4115 9.7195 16.4115C9.71274 16.4115 9.70606 16.41 9.7 16.407C9.68697 16.3966 9.67581 16.3841 9.667 16.37L6.152 11.246ZM10.1 7.29997L14.351 3.05397C14.94 2.46597 15.234 2.17197 15.575 2.06397C15.862 1.97298 16.17 1.97298 16.457 2.06397C16.798 2.17197 17.092 2.46397 17.681 3.05397L18.602 3.97397L15.577 8.65497C15.5692 8.66837 15.5591 8.68023 15.547 8.68997C15.5366 8.69467 15.5254 8.6971 15.514 8.6971C15.5026 8.6971 15.4914 8.69467 15.481 8.68997C15.3318 8.64684 15.1773 8.62496 15.022 8.62497C14.6782 8.62785 14.3454 8.74618 14.077 8.96097C14.057 8.97997 14.028 8.96797 14.003 8.96097C13.608 8.78597 10.537 7.48897 10.1 7.29997V7.29997ZM19.243 4.61497L22.035 7.40397L21.363 11.564V11.575C21.3627 11.5846 21.3606 11.5941 21.357 11.603C21.35 11.618 21.336 11.621 21.321 11.624H21.305C21.1669 11.6676 21.0369 11.7334 20.92 11.819L20.906 11.832C20.9025 11.8369 20.8981 11.8411 20.8929 11.8442C20.8877 11.8473 20.882 11.8492 20.876 11.85C20.8654 11.8509 20.8548 11.8491 20.845 11.845L16.592 10.04H16.583C16.556 10.029 16.524 10.016 16.524 9.98797C16.4999 9.75714 16.4258 9.53432 16.307 9.33497L16.298 9.31997C16.277 9.28597 16.255 9.25097 16.272 9.21997L19.243 4.61497ZM16.367 10.9L20.354 12.587C20.3771 12.5933 20.3968 12.6083 20.409 12.629C20.413 12.6423 20.413 12.6566 20.409 12.67C20.3961 12.7332 20.3891 12.7975 20.388 12.862V12.974C20.388 13.001 20.359 13.013 20.333 13.024H20.324C19.693 13.293 11.456 16.801 11.444 16.801C11.4372 16.8018 11.4303 16.8012 11.4237 16.7991C11.4171 16.797 11.4111 16.7936 11.406 16.789C11.384 16.768 11.406 16.736 11.425 16.708L11.435 16.693L14.712 11.626L14.718 11.617C14.737 11.586 14.759 11.552 14.794 11.552L14.827 11.557C14.8951 11.5687 14.9639 11.5754 15.033 11.577C15.277 11.5779 15.5175 11.5186 15.7331 11.4044C15.9487 11.2901 16.1328 11.1244 16.269 10.922C16.2753 10.911 16.2834 10.9012 16.293 10.893C16.3049 10.8879 16.318 10.8859 16.3309 10.8871C16.3438 10.8883 16.3562 10.8927 16.367 10.9V10.9ZM11.8 17.611L20.777 13.787C20.7867 13.7878 20.7957 13.7925 20.802 13.8C20.843 13.84 20.8864 13.8774 20.932 13.912L20.952 13.925C20.97 13.936 20.989 13.947 20.99 13.966V13.984L20.22 18.7V18.719C20.22 18.756 20.21 18.798 20.175 18.798C19.9707 18.8121 19.7729 18.8758 19.5986 18.9834C19.4244 19.0911 19.279 19.2396 19.175 19.416V19.422C19.1669 19.4392 19.1541 19.4538 19.138 19.464C19.1214 19.469 19.1036 19.469 19.087 19.464L11.928 17.989C11.928 17.989 11.808 17.612 11.8 17.611Z" fill="url(#paint0_linear_91_117)"/>
<defs>
<linearGradient id="paint0_linear_91_117" x1="16" y1="1.99997" x2="16" y2="30" gradientUnits="userSpaceOnUse">
<stop stop-color="#21C6B7"/>
<stop offset="1" stop-color="#4C9BBF"/>
</linearGradient>
</defs>
</svg>
