<svg width="32" height="32" viewBox="0 0 32 32" fill="none" xmlns="http://www.w3.org/2000/svg">
<path d="M27.7661 15.786C27.7661 15.0948 27.4916 14.432 27.0029 13.9432C26.5141 13.4545 25.8513 13.18 25.1601 13.18C25.0671 13.18 24.9761 13.185 24.8861 13.194L28.4661 2.63696H13.2541L16.8281 13.185C16.7761 13.185 16.7231 13.18 16.6701 13.18C16.0486 13.1805 15.4477 13.4032 14.9759 13.8077C14.504 14.2122 14.1922 14.772 14.0966 15.3861C14.001 16.0003 14.128 16.6284 14.4547 17.1571C14.7813 17.6859 15.2862 18.0806 15.8781 18.27C15.3239 19.2245 14.6337 20.0933 13.8291 20.849C12.7822 21.8497 11.5385 22.6217 10.1771 23.116C9.41432 22.7542 8.81774 22.1157 8.50851 21.3301C8.19929 20.5445 8.20058 19.6706 8.51214 18.886C8.58914 18.706 8.66714 18.524 8.74214 18.342C9.32348 18.2052 9.84025 17.873 10.2061 17.4009C10.5719 16.9289 10.7647 16.3456 10.7522 15.7485C10.7396 15.1514 10.5225 14.5767 10.1372 14.1205C9.75181 13.6642 9.22154 13.3541 8.63497 13.2418C8.04841 13.1295 7.44108 13.222 6.91448 13.5037C6.38789 13.7854 5.97394 14.2393 5.74181 14.7896C5.50967 15.3399 5.47342 15.9531 5.63912 16.5269C5.80481 17.1006 6.16241 17.6002 6.65214 17.942C5.81968 19.4503 5.1848 21.0595 4.76314 22.73C4.40914 24.865 4.76314 27.13 6.60814 28.411C10.9081 31.392 15.5771 26.563 20.4991 25.35C22.2831 24.91 24.2411 24.981 25.8121 24.07C26.38 23.7471 26.8697 23.303 27.2464 22.7692C27.623 22.2355 27.8773 21.6252 27.9911 20.982C28.0955 20.3693 28.0758 19.742 27.933 19.1371C27.7903 18.5323 27.5274 17.9623 27.1601 17.461C27.5522 16.9925 27.7667 16.4009 27.7661 15.79V15.786ZM19.2771 15.8V15.791C19.2774 15.3426 19.1619 14.9017 18.9419 14.5111C18.7219 14.1204 18.4047 13.7932 18.0211 13.561L20.8651 7.79996L23.7151 13.614C23.3576 13.8516 23.0645 14.174 22.8619 14.5525C22.6593 14.9309 22.5536 15.3537 22.5541 15.783V15.84L19.2771 15.8Z" fill="#99425B"/>
<path d="M28.4035 15.786C28.4023 15.0304 28.1377 14.2989 27.6553 13.7174C27.1729 13.1359 26.5028 12.7407 25.7605 12.6L29.3545 2H12.3665L15.9665 12.621C15.3377 12.761 14.7649 13.0852 14.3211 13.5522C13.8774 14.0191 13.5828 14.6077 13.4749 15.2428C13.3671 15.8779 13.4509 16.5307 13.7157 17.1179C13.9804 17.7052 14.4141 18.2003 14.9615 18.54C14.5093 19.2119 13.9834 19.8311 13.3935 20.386C12.4803 21.2594 11.4074 21.9486 10.2335 22.416C9.68241 22.096 9.26472 21.5886 9.05656 20.9863C8.8484 20.384 8.86362 19.727 9.09946 19.135L9.13946 19.042L9.21346 18.867C9.87965 18.6359 10.4524 18.194 10.845 17.6083C11.2375 17.0225 11.4286 16.3248 11.3892 15.6208C11.3497 14.9168 11.082 14.2447 10.6264 13.7065C10.1709 13.1683 9.55241 12.7931 8.86458 12.6378C8.17676 12.4825 7.45707 12.5556 6.81449 12.846C6.1719 13.1363 5.64142 13.6281 5.30336 14.2469C4.9653 14.8657 4.83807 15.5778 4.94094 16.2754C5.04381 16.973 5.37117 17.6181 5.87346 18.113C5.76546 18.344 5.65146 18.578 5.53446 18.819C4.88638 20.0112 4.41479 21.2913 4.13446 22.619C3.66946 25.419 4.41946 27.662 6.24546 28.927C7.22709 29.629 8.40467 30.0044 9.61146 30C11.7435 30 13.9005 28.929 16.0115 27.881C17.4863 27.079 19.0424 26.4363 20.6535 25.964C21.2478 25.8277 21.8485 25.7212 22.4535 25.645C23.7346 25.5427 24.9839 25.1936 26.1325 24.617C26.7805 24.247 27.3392 23.739 27.769 23.1289C28.1988 22.5189 28.4891 21.8218 28.6195 21.087C28.8322 19.8389 28.5872 18.5559 27.9295 17.474C28.2407 16.966 28.4051 16.3817 28.4045 15.786H28.4035ZM27.1305 15.786C27.1305 16.1756 27.0149 16.5565 26.7985 16.8805C26.582 17.2044 26.2743 17.4569 25.9143 17.606C25.5544 17.7551 25.1583 17.7942 24.7761 17.7181C24.394 17.6421 24.043 17.4545 23.7675 17.179C23.492 16.9035 23.3043 16.5525 23.2283 16.1703C23.1523 15.7882 23.1913 15.3921 23.3404 15.0321C23.4895 14.6721 23.742 14.3645 24.066 14.148C24.39 13.9315 24.7708 13.816 25.1605 13.816C25.6827 13.8168 26.1833 14.0246 26.5526 14.3939C26.9219 14.7632 27.1297 15.2638 27.1305 15.786V15.786ZM27.5775 3.273L24.4035 12.633C24.2676 12.6661 24.134 12.7079 24.0035 12.758L20.8685 6.358L17.7235 12.72C17.5865 12.6728 17.4465 12.6347 17.3045 12.606L14.1415 3.273H27.5775ZM16.6705 13.816C17.0601 13.816 17.441 13.9315 17.7649 14.148C18.0889 14.3645 18.3414 14.6721 18.4905 15.0321C18.6396 15.3921 18.6786 15.7882 18.6026 16.1703C18.5266 16.5525 18.339 16.9035 18.0635 17.179C17.788 17.4545 17.4369 17.6421 17.0548 17.7181C16.6726 17.7942 16.2765 17.7551 15.9166 17.606C15.5566 17.4569 15.2489 17.2044 15.0325 16.8805C14.816 16.5565 14.7005 16.1756 14.7005 15.786C14.701 15.2637 14.9087 14.7629 15.278 14.3936C15.6474 14.0243 16.1481 13.8165 16.6705 13.816V13.816ZM8.14746 13.835C8.53709 13.835 8.91797 13.9505 9.24194 14.167C9.5659 14.3835 9.8184 14.6911 9.96751 15.0511C10.1166 15.4111 10.1556 15.8072 10.0796 16.1893C10.0036 16.5715 9.81597 16.9225 9.54046 17.198C9.26495 17.4735 8.91393 17.6611 8.53179 17.7371C8.14965 17.8132 7.75355 17.7741 7.39358 17.625C7.03361 17.4759 6.72593 17.2234 6.50947 16.8995C6.293 16.5755 6.17746 16.1946 6.17746 15.805C6.17799 15.2829 6.38558 14.7822 6.75469 14.4129C7.12381 14.0436 7.62432 13.8358 8.14646 13.835H8.14746ZM27.3645 20.869C27.2657 21.4203 27.047 21.9431 26.7236 22.4004C26.4003 22.8576 25.9803 23.2382 25.4935 23.515C24.4838 24.0062 23.3901 24.3014 22.2705 24.385C21.6385 24.476 20.9855 24.57 20.3465 24.728C18.6455 25.2207 17.0026 25.8956 15.4465 26.741C12.2825 28.312 9.54646 29.669 6.97446 27.884C5.08746 26.576 5.17446 24.156 5.39446 22.83C5.65298 21.6227 6.08514 20.4593 6.67746 19.376L6.94746 18.817C7.21621 18.924 7.49803 18.9946 7.78546 19.027C7.53054 19.926 7.60146 20.8861 7.98571 21.7378C8.36996 22.5896 9.04281 23.2782 9.88546 23.682L10.1305 23.808L10.3895 23.715C11.8346 23.1939 13.1548 22.3764 14.2655 21.315C14.9988 20.6244 15.6431 19.8451 16.1835 18.995C16.8746 19.1001 17.5812 18.979 18.1978 18.6496C18.8144 18.3202 19.308 17.8003 19.6049 17.1674C19.9019 16.5346 19.9862 15.8226 19.8454 15.1379C19.7045 14.4532 19.3461 13.8323 18.8235 13.368L20.8615 9.247L22.9205 13.447C22.3346 14.0116 21.9827 14.7759 21.9345 15.5881C21.8863 16.4003 22.1455 17.2009 22.6605 17.8308C23.1755 18.4606 23.9086 18.8737 24.7141 18.9879C25.5197 19.102 26.3387 18.909 27.0085 18.447C27.3799 19.1961 27.5042 20.0438 27.3635 20.868L27.3645 20.869Z" fill="white"/>
</svg>
