<svg width="37" height="30" viewBox="0 0 37 30" fill="none" xmlns="http://www.w3.org/2000/svg">
<path d="M33.3 26.25H29.6V9.84375L18.5 16.875L7.4 9.84375V26.25H3.7V3.75H5.92L18.5 11.7188L31.08 3.75H33.3M33.3 0H3.7C1.6465 0 0 1.66875 0 3.75V26.25C0 27.2446 0.38982 28.1984 1.0837 28.9016C1.77759 29.6049 2.7187 30 3.7 30H33.3C34.2813 30 35.2224 29.6049 35.9163 28.9016C36.6102 28.1984 37 27.2446 37 26.25V3.75C37 2.75544 36.6102 1.80161 35.9163 1.09835C35.2224 0.395088 34.2813 0 33.3 0V0Z" fill="black"/>
</svg>
