<svg width="30" height="30" viewBox="0 0 30 30" fill="none" xmlns="http://www.w3.org/2000/svg">
<path d="M12.4888 17.4777C12.4888 18.7701 11.5513 19.1786 10.3996 19.1786H7.37946V15.6362H10.4598C11.7054 15.6429 12.4888 16.1585 12.4888 17.4777ZM11.9732 11.9665C11.9732 10.7812 11.0558 10.5 10.0379 10.5H7.38616V13.5H10.2455C11.2567 13.5 11.9732 13.058 11.9732 11.9665ZM20.8326 13.5201C19.6071 13.5201 18.7902 14.2835 18.7098 15.5089H22.875C22.7612 14.2701 22.1183 13.5201 20.8326 13.5201ZM30 3.21429V26.7857C30 28.5603 28.5603 30 26.7857 30H3.21429C1.43973 30 0 28.5603 0 26.7857V3.21429C0 1.43973 1.43973 0 3.21429 0H26.7857C28.5603 0 30 1.43973 30 3.21429ZM18.1942 10.2455H23.404V8.97991H18.1942V10.2455ZM15.3147 17.6317C15.3147 16.0179 14.5513 14.625 12.971 14.1763C14.1228 13.6272 14.7254 12.9911 14.7254 11.6987C14.7254 9.14062 12.817 8.51786 10.6138 8.51786H4.55357V21.375H10.7879C13.125 21.3616 15.3147 20.2433 15.3147 17.6317ZM25.4464 16.6406C25.4464 13.8884 23.8326 11.5915 20.9196 11.5915C18.0804 11.5915 16.1585 13.721 16.1585 16.5201C16.1585 19.4196 17.9866 21.4085 20.9196 21.4085C23.1429 21.4085 24.5826 20.4107 25.279 18.2746H23.0223C22.7746 19.0714 21.7768 19.4866 21 19.4866C19.5 19.4866 18.7165 18.6094 18.7165 17.1228H25.4263C25.433 16.9688 25.4464 16.8013 25.4464 16.6406Z" fill="black"/>
</svg>
