<svg width="14" height="30" viewBox="0 0 14 30" fill="none" xmlns="http://www.w3.org/2000/svg">
<g clip-path="url(#clip0_91_86)">
<path d="M9.60434 3.33922C8.34598 1.84737 7.26234 0.33212 7.04097 0.0174754C7.03571 0.0119534 7.02938 0.00755701 7.02237 0.00455301C7.01535 0.001549 7.0078 0 7.00017 0C6.99254 0 6.98499 0.001549 6.97798 0.00455301C6.97097 0.00755701 6.96464 0.0119534 6.95938 0.0174754C6.738 0.332175 5.65437 1.84737 4.39595 3.33922C-6.40521 17.104 6.09717 26.3933 6.09717 26.3933L6.20201 26.4633C6.2952 27.8968 6.52827 29.9599 6.52827 29.9599H7.46042C7.46042 29.9599 7.69339 27.9085 7.78663 26.4633L7.89152 26.3817C7.90317 26.3934 20.4056 17.1041 9.60434 3.33922V3.33922ZM6.99432 26.1835C6.99432 26.1835 6.43503 25.7057 6.28355 25.461V25.4376L6.95938 10.449C6.95938 10.4023 7.02932 10.4023 7.02932 10.449L7.70509 25.4376V25.461C7.55361 25.7057 6.99432 26.1835 6.99432 26.1835V26.1835Z" fill="#01EC64"/>
</g>
<defs>
<clipPath id="clip0_91_86">
<rect width="14" height="30" fill="white"/>
</clipPath>
</defs>
</svg>
