<svg width="39" height="27" viewBox="0 0 39 27" fill="none" xmlns="http://www.w3.org/2000/svg">
<g clip-path="url(#clip0_91_82)">
<path d="M11.6017 17.8167L12.787 21.7226C13.0533 22.6094 13.1643 23.2285 13.1198 23.5813C13.7681 21.818 14.221 19.8965 14.4787 17.8167H15.9038C15.291 21.2026 14.4828 23.6631 13.4795 25.198C12.6979 26.3808 11.8415 26.9722 10.909 26.9722C10.6604 26.9722 10.3539 26.8959 9.99017 26.7444V25.9282C10.1679 25.9547 10.3764 25.9688 10.6162 25.9688C11.0512 25.9688 11.4018 25.8464 11.6685 25.602C11.9879 25.3042 12.1478 24.9695 12.1478 24.5986C12.1478 24.3453 12.0231 23.8255 11.7749 23.0391L10.1235 17.8167H11.6017H11.6017ZM2.53066 15.416L4.70156 22.1433H4.71496L6.89919 15.416H8.68375C9.07451 18.7523 9.30531 21.8048 9.37615 24.5717H7.8716C7.81866 21.9852 7.67203 19.553 7.43224 17.2748H7.41914L5.12804 24.5717H3.98227L1.70503 17.2748H1.69163C1.52268 19.4628 1.41634 21.8949 1.37201 24.5717H0C0.0886641 21.3162 0.310553 18.2646 0.665666 15.416H2.53073H2.53066Z" fill="#00758F"/>
<path d="M26.8505 15.2801C29.1857 15.2801 30.3533 16.7954 30.3533 19.8244C30.3533 21.4704 30.0022 22.7137 29.3006 23.5536C29.1741 23.7071 29.0343 23.8397 28.8872 23.9626L30.5397 24.7925L30.5381 24.7924L29.9514 25.8215L27.7993 24.5461C27.4426 24.6534 27.0501 24.7071 26.6224 24.7071C25.4757 24.7071 24.6193 24.3677 24.053 23.6897C23.4314 22.9398 23.1208 21.7591 23.1208 20.1498C23.1208 18.5131 23.4714 17.2745 24.1732 16.4334C24.8124 15.6641 25.705 15.28 26.8505 15.28V15.2801ZM19.6995 15.2934C20.5341 15.2934 21.293 15.5202 21.9766 15.9723L21.6294 16.7581C21.0444 16.5056 20.4677 16.3788 19.899 16.3788C19.4376 16.3788 19.082 16.4915 18.8342 16.7185C18.5849 16.9435 18.4308 17.233 18.4308 17.5859C18.4308 18.1283 18.8112 18.5986 19.5135 18.9959C19.7436 19.1236 19.973 19.2529 20.2014 19.3836L20.2539 19.4135L20.2801 19.4285L20.3326 19.4585L20.3588 19.4735L20.4112 19.5035C20.9429 19.8079 21.4432 20.0985 21.4432 20.0985C22.1455 20.6048 22.4956 21.1447 22.4956 22.0338C22.4956 22.8103 22.2154 23.4477 21.6569 23.9465C21.0981 24.443 20.3472 24.692 19.407 24.692C18.5276 24.692 17.6753 24.4054 16.8497 23.8371L17.2359 23.0506C17.9464 23.4123 18.5893 23.5929 19.1666 23.5929C19.708 23.5929 20.1318 23.4702 20.4384 23.2277C20.7444 22.9835 20.9277 22.6428 20.9277 22.2109C20.9277 21.6673 20.5554 21.2025 19.8724 20.8127C19.6586 20.6927 19.4454 20.5716 19.2329 20.4493L19.1806 20.4192C19.0845 20.3641 18.9876 20.3082 18.8928 20.2535L18.8414 20.2238C18.3802 19.9574 17.9814 19.7246 17.9814 19.7246C17.2986 19.2173 16.9562 18.6731 16.9562 17.7763C16.9562 17.0346 17.2115 16.4351 17.7214 15.979C18.2326 15.5219 18.892 15.2934 19.6995 15.2934V15.2934ZM33.0977 15.416V23.4454H35.9342V24.5717H31.6591V15.416H33.0977ZM37.5104 23.4489V23.6392H37.1985V24.5707H36.9601V23.6392H36.6361V23.4489H37.5104H37.5104ZM38.0862 23.4489L38.3857 24.2135L38.6607 23.4489H38.9987V24.5707H38.774V23.7169L38.4609 24.5707H38.2989L37.9853 23.7169H37.9733V24.5707H37.7607V23.4489H38.0863H38.0862ZM26.7036 16.4061C25.3275 16.4061 24.6391 17.5596 24.6391 19.865C24.6391 21.1856 24.8215 22.1432 25.1857 22.7401C25.523 23.2925 26.0512 23.5681 26.7705 23.5681C28.1466 23.5681 28.835 22.4056 28.835 20.0818C28.835 18.7797 28.6526 17.8303 28.2888 17.2331C27.9512 16.6819 27.4232 16.4061 26.7037 16.4061H26.7036Z" fill="#F29111"/>
<path d="M23.0966 0.567315C23.5531 -0.571946 25.1493 0.290816 25.7688 0.688776C25.9206 0.788343 26.0947 0.998696 26.2687 1.07645C26.5403 1.08728 26.8116 1.10886 27.0836 1.12039C27.5938 1.24216 28.0717 1.34165 28.4738 1.57421C30.3421 2.69173 31.5583 3.83052 32.6777 5.71155C32.9169 6.10997 33.0364 6.54112 33.2318 6.97227C33.5029 7.61493 33.8076 8.28955 34.1224 8.89724C34.2633 9.18534 34.3723 9.50571 34.568 9.74902C34.6444 9.86027 34.8614 9.89307 34.9911 9.95952C35.3497 10.1481 35.7842 10.2912 36.1215 10.5124C36.7514 10.9113 37.3604 11.3867 37.914 11.8733C38.1203 12.0611 38.2609 12.327 38.4575 12.5257V12.6259C38.283 12.6803 38.1091 12.736 37.9351 12.7807C37.5549 12.8799 37.2181 12.8574 36.8493 12.9567C36.6214 13.0238 36.3384 13.1124 36.0994 13.1349L36.1215 13.1575C36.2621 13.5656 37.0229 13.8975 37.3709 14.1416C37.7935 14.4514 38.1851 14.827 38.5003 15.2585C38.6091 15.3686 38.718 15.4688 38.8263 15.5785C38.902 15.6898 38.9233 15.8337 39 15.9329V15.9664C38.9151 15.936 38.8541 15.878 38.7963 15.8174L38.7618 15.7808C38.7273 15.7444 38.6925 15.7087 38.6528 15.6792C38.413 15.5129 38.1749 15.3139 37.9351 15.1592C37.5228 14.8936 37.0447 14.7394 36.6214 14.4727C36.3821 14.3179 36.154 14.1416 35.9258 13.9644C35.719 13.8092 35.4913 13.511 35.3613 13.2897C35.2848 13.1675 35.2742 13.0238 35.1868 12.9354C35.2024 12.7877 35.3356 12.7439 35.4701 12.7078L35.501 12.6995C35.5474 12.6873 35.5928 12.6751 35.6324 12.6589C36.1971 12.4154 36.8704 12.327 37.7398 12.3491C37.7071 12.1274 37.1638 11.8511 36.9904 11.7184C36.6423 11.4636 36.2737 11.1977 35.9044 10.9657C35.7087 10.8443 35.3715 10.7556 35.1547 10.6563C34.8614 10.5346 34.2094 10.4129 34.0469 10.1809C33.7708 9.81532 33.5724 9.37922 33.3798 8.93871L33.3274 8.81848C33.31 8.77842 33.2924 8.73837 33.2749 8.69834C33.0473 8.16785 32.7645 7.61478 32.5364 7.07161C32.4171 6.80664 32.3623 6.57408 32.2317 6.31994C31.439 4.76044 30.2657 3.45477 28.8432 2.53654C28.3757 2.23776 27.8545 1.96126 27.2791 1.77334C26.953 1.67331 26.5616 1.72862 26.2142 1.65188H25.9855C25.7904 1.59602 25.6275 1.3859 25.4752 1.27512C25.1389 1.04318 24.8021 0.887447 24.3999 0.721965C24.259 0.655587 23.8565 0.501014 23.7161 0.622707C23.6291 0.644911 23.585 0.678255 23.5636 0.766914C23.477 0.899206 23.5531 1.0985 23.607 1.2205C23.7702 1.57405 23.9981 1.78417 24.2049 2.08295C24.389 2.34792 24.6176 2.6467 24.7481 2.9348C25.0296 3.5541 25.1607 4.24024 25.4216 4.85946C25.5183 5.09233 25.6713 5.3573 25.8122 5.56734C25.9315 5.73406 26.1485 5.8546 26.2142 6.06564C26.3451 6.28691 26.0183 7.01699 25.9427 7.24885C25.6597 8.15609 25.7145 9.4172 26.0404 10.2036L26.0578 10.2451L26.0751 10.2871C26.1941 10.5751 26.3215 10.8853 26.6378 10.9658C26.6596 10.9438 26.6378 10.9554 26.681 10.9438C26.7575 10.3351 26.7791 9.74894 26.9857 9.27269C27.105 8.97491 27.3434 8.76441 27.5068 8.52133C27.6157 8.58755 27.6157 8.78723 27.6806 8.91937C27.822 9.26209 27.9738 9.63785 28.1481 9.98157C28.5058 10.6895 28.9083 11.3757 29.3643 11.995C29.517 12.2162 29.7337 12.4596 29.9292 12.6588C30.0162 12.736 30.1138 12.7805 30.1792 12.8798H30.2005V12.9132C29.8746 12.7912 29.6681 12.4488 29.4082 12.2489C28.9188 11.8731 28.3329 11.3088 27.9956 10.7674C27.8545 10.4565 27.702 10.1586 27.55 9.84928V9.82692C27.485 9.91527 27.5068 10.003 27.4742 10.1367C27.3332 10.6895 27.4418 11.32 26.953 11.5189C26.3989 11.7517 25.9856 11.1431 25.8122 10.8665C25.2579 9.94854 25.1061 8.39987 25.497 7.14974C25.5838 6.87301 25.5956 6.54112 25.7472 6.32017C25.7144 6.12042 25.5629 6.0658 25.4752 5.94341C25.3231 5.73422 25.193 5.49052 25.0739 5.2582C24.8452 4.80438 24.6825 4.26214 24.5089 3.77544C24.4326 3.57669 24.4108 3.37717 24.3347 3.18902C24.2049 2.90185 23.9656 2.61374 23.781 2.35968C23.5311 1.99452 22.8032 1.2868 23.0966 0.567315V0.567315ZM26.6594 2.73466C26.6884 2.76422 26.7234 2.79006 26.7597 2.81551L26.8034 2.84599C26.8617 2.88699 26.9181 2.93016 26.9527 2.98896C27.0075 3.06679 27.0177 3.14361 27.0834 3.22159C27.0834 3.48749 27.0075 3.66427 26.8544 3.77444C26.8544 3.77444 26.8439 3.78604 26.8332 3.79687C26.7463 3.61963 26.6702 3.44332 26.5828 3.26623C26.4751 3.11166 26.3228 2.98904 26.2351 2.81242H26.214V2.79021C26.3451 2.75733 26.4751 2.73466 26.6594 2.73466Z" fill="#00758F"/>
</g>
<defs>
<clipPath id="clip0_91_82">
<rect width="39" height="27" fill="white"/>
</clipPath>
</defs>
</svg>
