<svg width="32" height="32" viewBox="0 0 32 32" fill="none" xmlns="http://www.w3.org/2000/svg">
<path d="M5.79999 24.5999L5.96999 24.3629L13.99 9.14894L14.007 8.98794L10.472 2.34794C10.4073 2.22652 10.306 2.12852 10.1825 2.0678C10.0591 2.00709 9.91963 1.98674 9.78395 2.00963C9.64828 2.03252 9.52323 2.09749 9.42651 2.19535C9.32979 2.29321 9.26629 2.41901 9.24499 2.55494L5.79999 24.5999Z" fill="#FFC24A"/>
<path d="M5.90002 24.4201L6.02802 24.1701L13.965 9.11406L10.439 2.44806C10.3809 2.33213 10.2867 2.23817 10.1707 2.18024C10.0547 2.12231 9.92298 2.10354 9.79538 2.12674C9.66778 2.14994 9.55113 2.21386 9.46291 2.30893C9.37469 2.40399 9.31964 2.52509 9.30602 2.65406L5.90002 24.4201Z" fill="#FFA712"/>
<path d="M16.584 14.01L19.216 11.31L16.583 6.28896C16.5251 6.1809 16.4389 6.09058 16.3337 6.02762C16.2285 5.96465 16.1081 5.9314 15.9855 5.9314C15.8629 5.9314 15.7426 5.96465 15.6374 6.02762C15.5321 6.09058 15.446 6.1809 15.388 6.28896L13.981 8.97096V9.19996L16.584 14.01Z" fill="#F4BD62"/>
<path d="M16.537 13.9L19.1 11.28L16.537 6.39998C16.4951 6.29434 16.4236 6.20308 16.331 6.1372C16.2384 6.07131 16.1288 6.03361 16.0152 6.02864C15.9017 6.02367 15.7892 6.05165 15.6912 6.1092C15.5932 6.16674 15.514 6.25141 15.463 6.35298L14.049 9.08198L14.007 9.22098L16.537 13.9Z" fill="#FFA50E"/>
<path d="M5.802 24.6011L5.879 24.5231L6.158 24.4101L16.418 14.1881L16.548 13.8341L13.989 8.95605L5.802 24.6011V24.6011Z" fill="#F6820C"/>
<path d="M16.912 29.7559L26.2 24.5769L23.546 8.24595C23.527 8.13083 23.4766 8.02317 23.4004 7.9348C23.3242 7.84643 23.2251 7.78077 23.114 7.74502C23.003 7.70927 22.8842 7.70481 22.7707 7.73214C22.6573 7.75947 22.5536 7.81753 22.471 7.89995L5.79999 24.5999L15.033 29.7549C15.32 29.9151 15.6433 29.9992 15.972 29.9992C16.3007 29.9992 16.6239 29.9151 16.911 29.7549" fill="#FDE068"/>
<path d="M26.115 24.534L23.483 8.32599C23.4784 8.21588 23.4412 8.10962 23.3761 8.02066C23.311 7.9317 23.2211 7.86405 23.1175 7.82625C23.014 7.78846 22.9016 7.78223 22.7945 7.80835C22.6874 7.83447 22.5905 7.89177 22.516 7.97299L5.90002 24.569L15.031 29.669C15.3158 29.8279 15.6364 29.9112 15.9625 29.9112C16.2886 29.9112 16.6093 29.8279 16.894 29.669L26.115 24.534Z" fill="#FCCA3F"/>
<path d="M16.912 29.6C16.6249 29.7602 16.3017 29.8443 15.973 29.8443C15.6443 29.8443 15.321 29.7602 15.034 29.6L5.87599 24.522L5.79999 24.6L15.033 29.755C15.32 29.9152 15.6433 29.9993 15.972 29.9993C16.3007 29.9993 16.6239 29.9152 16.911 29.755L26.2 24.577L26.177 24.437L16.912 29.6Z" fill="#EEAB37"/>
<path d="M23.201 13L15.405 16.534V27.603L21.625 24.785V31L31 26.743V16.534L23.201 13Z" fill="#252525"/>
<path d="M23.201 14.73L16.985 17.549V20.327L23.201 17.507L29.421 20.327V17.549L23.201 14.73Z" fill="white"/>
<path d="M23.201 19.564L16.985 22.381V25.158L23.201 22.337L29.421 25.158V22.381L23.201 19.564Z" fill="white"/>
<path d="M28.6061 26.098L25.5511 24.712L23.201 25.778V28.548L28.6061 26.098Z" fill="white"/>
</svg>
