<svg width="32" height="32" viewBox="0 0 32 32" fill="none" xmlns="http://www.w3.org/2000/svg">
<circle cx="16" cy="16" r="16" fill="#83FF6B"/>
<path d="M6.05682 21V12.2727H11.3239V13.2102H7.11364V16.1591H11.0511V17.0966H7.11364V20.0625H11.392V21H6.05682ZM13.3821 17.1136V16.4318L18.8707 13.6364V14.7273L14.6605 16.7557L14.6946 16.6875V16.858L14.6605 16.7898L18.8707 18.8182V19.9091L13.3821 17.1136ZM23.9343 21.1193C23.3718 21.1193 22.8704 21.0227 22.43 20.8295C21.9925 20.6364 21.6445 20.3679 21.386 20.0241C21.1303 19.6776 20.9911 19.2756 20.9684 18.8182H22.0423C22.065 19.0994 22.1616 19.3423 22.332 19.5469C22.5025 19.7486 22.7255 19.9048 23.0011 20.0156C23.2766 20.1264 23.582 20.1818 23.9173 20.1818C24.2923 20.1818 24.6246 20.1165 24.9144 19.9858C25.2042 19.8551 25.4315 19.6733 25.5962 19.4403C25.761 19.2074 25.8434 18.9375 25.8434 18.6307C25.8434 18.3097 25.7638 18.027 25.6048 17.7827C25.4457 17.5355 25.2127 17.3423 24.9059 17.2031C24.5991 17.0639 24.2241 16.9943 23.7809 16.9943H23.082V16.0568H23.7809C24.1275 16.0568 24.4315 15.9943 24.6928 15.8693C24.957 15.7443 25.163 15.5682 25.3107 15.3409C25.4613 15.1136 25.5366 14.8466 25.5366 14.5398C25.5366 14.2443 25.4712 13.9872 25.3406 13.7685C25.2099 13.5497 25.0252 13.3793 24.7866 13.2571C24.5508 13.1349 24.2724 13.0739 23.9513 13.0739C23.6502 13.0739 23.3661 13.1293 23.0991 13.2401C22.8349 13.348 22.619 13.5057 22.4513 13.7131C22.2837 13.9176 22.1928 14.1648 22.1786 14.4545H21.1559C21.1729 13.9972 21.3107 13.5966 21.5692 13.2528C21.8278 12.9062 22.1658 12.6364 22.5835 12.4432C23.0039 12.25 23.4656 12.1534 23.9684 12.1534C24.5082 12.1534 24.9712 12.2628 25.3576 12.4815C25.744 12.6974 26.0408 12.983 26.2482 13.3381C26.4556 13.6932 26.5593 14.0767 26.5593 14.4886C26.5593 14.9801 26.43 15.3991 26.1715 15.7457C25.9158 16.0923 25.5678 16.3324 25.1275 16.4659V16.5341C25.6786 16.625 26.109 16.8594 26.4187 17.2372C26.7283 17.6122 26.8832 18.0767 26.8832 18.6307C26.8832 19.1051 26.7539 19.5312 26.4954 19.9091C26.2397 20.2841 25.8903 20.5795 25.4471 20.7955C25.0039 21.0114 24.4996 21.1193 23.9343 21.1193Z" fill="black"/>
</svg>
