<svg width="27" height="16" viewBox="0 0 27 16" fill="none" xmlns="http://www.w3.org/2000/svg">
<g clip-path="url(#clip0_91_138)">
<path d="M7.63513 5.79746C7.63513 6.12551 7.67099 6.39145 7.73353 6.58648C7.81293 6.8059 7.90854 7.01922 8.01956 7.2247C8.06428 7.2956 8.0821 7.36651 8.0821 7.42862C8.0821 7.5172 8.02853 7.60588 7.9123 7.69456L7.3491 8.06685C7.26862 8.12007 7.18815 8.14664 7.11654 8.14664C7.02721 8.14664 6.93777 8.1023 6.84833 8.02251C6.72788 7.89415 6.62013 7.75463 6.52655 7.60588C6.43711 7.45529 6.34767 7.28672 6.24937 7.0829C5.55201 7.89838 4.67578 8.30622 3.62088 8.30622C2.86994 8.30622 2.27088 8.09341 1.83276 7.668C1.39475 7.24238 1.17126 6.67506 1.17126 5.96593C1.17126 5.21247 1.43947 4.60081 1.98485 4.13984C2.53012 3.67887 3.25438 3.44839 4.17523 3.44839C4.47919 3.44839 4.79211 3.47495 5.12286 3.51929C5.45372 3.56363 5.79343 3.63453 6.15108 3.71432V3.06721C6.15108 2.39343 6.00796 1.92368 5.73078 1.64886C5.44475 1.37404 4.96192 1.24102 4.27352 1.24102C3.9606 1.24102 3.63881 1.27657 3.30796 1.35636C2.97721 1.43605 2.65532 1.53362 2.34239 1.65775C2.19937 1.71976 2.09211 1.75521 2.02946 1.77299C1.96692 1.79077 1.9222 1.79955 1.88645 1.79955C1.76126 1.79955 1.69871 1.71087 1.69871 1.52473V1.09032C1.69871 0.948519 1.71664 0.842166 1.76126 0.780153C1.80598 0.718035 1.88645 0.656022 2.01164 0.594009C2.32457 0.434427 2.70003 0.301408 3.13805 0.195055C3.57627 0.0798131 4.04117 0.0266889 4.53287 0.0266889C5.59684 0.0266889 6.37467 0.265957 6.87533 0.744702C7.36703 1.22334 7.61741 1.95024 7.61741 2.92541V5.79746H7.63534H7.63513ZM4.00532 7.14491C4.30042 7.14491 4.60438 7.09179 4.92616 6.98533C5.24805 6.87898 5.53419 6.68394 5.7755 6.41801C5.91862 6.24964 6.02589 6.0635 6.07946 5.85069C6.13315 5.63798 6.1689 5.38083 6.1689 5.07945V4.70716C5.89777 4.64173 5.62316 4.59142 5.34635 4.55647C5.06762 4.52136 4.78695 4.50359 4.50598 4.50324C3.90691 4.50324 3.4689 4.61848 3.17391 4.85785C2.8788 5.09722 2.73579 5.43406 2.73579 5.87725C2.73579 6.29388 2.84305 6.60415 3.06654 6.81696C3.28117 7.03856 3.59409 7.14491 4.00532 7.14491ZM11.1845 8.1023C11.0235 8.1023 10.9163 8.07573 10.8448 8.01362C10.7732 7.96049 10.7106 7.83636 10.657 7.668L8.55608 0.815604C8.50229 0.638244 8.4755 0.523003 8.4755 0.46099C8.4755 0.319186 8.54701 0.23929 8.69013 0.23929H9.56626C9.73607 0.23929 9.8524 0.265957 9.91494 0.32797C9.98645 0.381199 10.0401 0.505329 10.0937 0.673695L11.5957 6.54214L12.9904 0.673695C13.0351 0.496441 13.0888 0.381199 13.1602 0.32797C13.2318 0.274846 13.357 0.239395 13.518 0.239395H14.2331C14.403 0.239395 14.5193 0.265957 14.5907 0.32797C14.6623 0.381199 14.7248 0.505329 14.7606 0.673695L16.1732 6.61304L17.7198 0.673695C17.7734 0.496441 17.8361 0.381199 17.8986 0.32797C17.9701 0.274846 18.0863 0.239395 18.2473 0.239395H19.0787C19.2218 0.239395 19.3023 0.310297 19.3023 0.46099C19.3023 0.505329 19.2933 0.549669 19.2844 0.602793C19.2754 0.656022 19.2576 0.726924 19.2218 0.824493L17.0671 7.67678C17.0135 7.85414 16.951 7.96938 16.8794 8.02251C16.8079 8.07573 16.6916 8.11119 16.5397 8.11119H15.7709C15.601 8.11119 15.4847 8.08462 15.4131 8.02251C15.3416 7.96049 15.2791 7.84525 15.2433 7.668L13.8575 1.95024L12.4807 7.659C12.4361 7.83636 12.3824 7.9516 12.3109 8.01362C12.2394 8.07573 12.1142 8.1023 11.9533 8.1023H11.1844H11.1845ZM22.6729 8.34167C22.208 8.34167 21.7431 8.28844 21.2961 8.18209C20.849 8.07573 20.5004 7.96039 20.268 7.82758C20.1248 7.74768 20.0264 7.65911 19.9908 7.57932C19.956 7.50107 19.9377 7.41658 19.9371 7.33105V6.87898C19.9371 6.69283 20.0086 6.60415 20.1428 6.60415C20.1975 6.60435 20.2519 6.61336 20.3037 6.63082C20.3573 6.6486 20.4378 6.68394 20.5272 6.71939C20.843 6.85711 21.1726 6.96112 21.5106 7.02967C21.8608 7.10014 22.2172 7.13577 22.5746 7.13602C23.1378 7.13602 23.5759 7.03856 23.8798 6.84353C24.1838 6.64849 24.3448 6.36489 24.3448 6.00138C24.3448 5.75323 24.2643 5.5493 24.1033 5.38083C23.9424 5.21247 23.6384 5.06177 23.2004 4.91987L21.904 4.52102C21.2514 4.31709 20.7686 4.01571 20.4735 3.61675C20.1785 3.22669 20.0265 2.79239 20.0265 2.33142C20.0265 1.95913 20.107 1.63108 20.268 1.34737C20.4288 1.06376 20.6434 0.815604 20.9116 0.620571C21.1798 0.41665 21.4838 0.265957 21.8415 0.159604C22.199 0.053251 22.5745 0.00891113 22.9679 0.00891113C23.1646 0.00891113 23.3702 0.0178 23.5669 0.0443621C23.7726 0.0709242 23.9603 0.106375 24.1481 0.141826C24.3268 0.186166 24.4967 0.230506 24.6577 0.283735C24.8186 0.336859 24.9437 0.390088 25.0331 0.443212C25.1583 0.514218 25.2477 0.58512 25.3014 0.664911C25.355 0.735813 25.3818 0.833277 25.3818 0.957408V1.37404C25.3818 1.56018 25.3103 1.65775 25.1762 1.65775C25.1047 1.65775 24.9884 1.62219 24.8366 1.55129C24.3268 1.32081 23.7547 1.20556 23.1199 1.20556C22.6103 1.20556 22.208 1.28536 21.9308 1.45383C21.6537 1.62219 21.5106 1.87934 21.5106 2.24274C21.5106 2.491 21.6 2.70371 21.7788 2.87218C21.9577 3.04055 22.2884 3.20902 22.7623 3.35971L24.0318 3.75866C24.6755 3.96258 25.1404 4.24619 25.4176 4.60959C25.6948 4.97309 25.8289 5.38972 25.8289 5.85069C25.8289 6.23187 25.7483 6.57759 25.5964 6.87898C25.4355 7.18036 25.2209 7.4463 24.9437 7.65911C24.6665 7.8807 24.3358 8.04028 23.9514 8.15553C23.549 8.27966 23.1288 8.34167 22.6729 8.34167V8.34167Z" fill="#252F3E"/>
<path d="M24.3626 12.6498C21.4213 14.804 17.1477 15.9475 13.4733 15.9475C8.32354 15.9475 3.68355 14.0593 0.178928 10.9212C-0.098244 10.673 0.152033 10.3362 0.482783 10.5311C4.27354 12.7119 8.94939 14.0327 13.7862 14.0327C17.0494 14.0327 20.6345 13.3591 23.9335 11.9761C24.4252 11.7544 24.8454 12.2953 24.3626 12.6498V12.6498ZM25.5875 11.2669C25.212 10.7883 23.102 11.0364 22.1454 11.1517C21.8593 11.1872 21.8146 10.939 22.0739 10.7528C23.7547 9.58263 26.5173 9.91957 26.8391 10.3095C27.161 10.7085 26.7497 13.4476 25.1762 14.7596C24.9349 14.9635 24.7024 14.8572 24.8097 14.5913C25.1672 13.7136 25.963 11.7368 25.5875 11.2669V11.2669Z" fill="#FF9900"/>
</g>
<defs>
<clipPath id="clip0_91_138">
<rect width="27" height="16" fill="white"/>
</clipPath>
</defs>
</svg>
