<svg width="25" height="33" viewBox="0 0 25 33" fill="none" xmlns="http://www.w3.org/2000/svg">
<g clip-path="url(#clip0_91_129)">
<path d="M8.06196 25.5105C8.06196 25.5105 6.77309 26.2425 8.97924 26.4902C11.652 26.7879 13.0179 26.7453 15.9633 26.2008C15.9633 26.2008 16.7377 26.675 17.8191 27.0858C11.2165 29.8495 2.87583 26.9257 8.06196 25.5105M7.25512 21.9039C7.25512 21.9039 5.80952 22.9491 8.01733 23.172C10.8724 23.4597 13.1271 23.4833 17.0287 22.7495C17.0287 22.7495 17.5683 23.2838 18.4168 23.5761C10.4337 25.8559 1.54204 23.7558 7.25512 21.9039" fill="#5382A1"/>
<path d="M14.0568 15.7861C15.6838 17.6154 13.6294 19.2616 13.6294 19.2616C13.6294 19.2616 17.7603 17.1788 15.8632 14.5707C14.0913 12.1386 12.7324 10.93 20.0885 6.76343C20.0885 6.76343 8.54187 9.57987 14.0568 15.786" fill="#E76F00"/>
<path d="M22.7894 28.1779C22.7894 28.1779 23.7432 28.9454 21.7389 29.5392C17.9278 30.6669 5.87641 31.0074 2.52856 29.5842C1.32514 29.073 3.58198 28.3634 4.29184 28.2144C5.03217 28.0576 5.45532 28.0869 5.45532 28.0869C4.11694 27.166 -3.19537 29.8949 1.74106 30.6763C15.2033 32.8085 26.2813 29.7163 22.7894 28.1779ZM8.68159 18.1671C8.68159 18.1671 2.55161 19.5892 6.51088 20.1054C8.18256 20.324 11.5151 20.2746 14.6193 20.0206C17.1562 19.8117 19.7036 19.3672 19.7036 19.3672C19.7036 19.3672 18.809 19.7414 18.1619 20.173C11.9369 21.7719 -0.0887253 21.0281 3.37329 19.3925C6.30112 18.0103 8.68169 18.1671 8.68169 18.1671M19.6783 24.1703C26.0064 20.9588 23.0805 17.8726 21.0383 18.2884C20.5377 18.3901 20.3146 18.4782 20.3146 18.4782C20.3146 18.4782 20.5004 18.194 20.8553 18.071C24.8954 16.6837 28.0025 22.1623 19.5511 24.3321C19.5511 24.3322 19.6491 24.2467 19.6783 24.1703Z" fill="#5382A1"/>
<path d="M15.8632 0.0353737C15.8632 0.0353737 19.3678 3.45936 12.5393 8.7242C7.06359 12.9476 11.2906 15.3557 12.537 18.107C9.34074 15.2905 6.99504 12.8111 8.56877 10.5036C10.8784 7.11616 17.2772 5.47389 15.8632 0.0352783" fill="#E76F00"/>
<path d="M9.30349 32.8727C15.3776 33.2525 24.7051 32.662 24.926 29.855C24.926 29.855 24.5013 30.9192 19.906 31.7642C14.7217 32.717 8.32751 32.6058 4.53503 31.9951C4.53513 31.9951 5.3114 32.6227 9.30359 32.8727" fill="#5382A1"/>
</g>
<defs>
<clipPath id="clip0_91_129">
<rect width="25" height="33" fill="white"/>
</clipPath>
</defs>
</svg>
