<svg width="24" height="21" viewBox="0 0 24 21" fill="none" xmlns="http://www.w3.org/2000/svg">
<g clip-path="url(#clip0_91_135)">
<path d="M1.80825 18.012C1.18809 18.012 0.770813 18.4967 0.770813 19.1198C0.770813 19.743 1.18809 20.2277 1.80825 20.2277C2.42841 20.2277 2.84569 19.743 2.84569 19.1198C2.84569 18.4967 2.42841 18.012 1.80825 18.012M1.66913 17.3254C2.16759 17.3254 2.58487 17.5793 2.78194 17.8562V17.3947H3.54694V20.8508H2.96156C2.91551 20.8506 2.87139 20.8324 2.83882 20.8C2.80626 20.7675 2.7879 20.7236 2.78775 20.6778V20.3893C2.59069 20.6662 2.17922 20.9201 1.67494 20.9201C0.7245 20.9201 0 20.1123 0 19.1256C0 18.1389 0.718688 17.3254 1.66913 17.3254M4.41628 17.3947H5.18128V17.862C5.38997 17.5157 5.78409 17.3253 6.23616 17.3253C7.04175 17.3253 7.56338 17.8909 7.56338 18.7679V20.8508H6.978C6.93195 20.8506 6.88782 20.8324 6.85526 20.8C6.8227 20.7675 6.80434 20.7236 6.80419 20.6778V18.8948C6.80419 18.3467 6.52594 18.0178 6.07969 18.0178C5.5755 18.0178 5.18138 18.4101 5.18138 19.1487V20.8508H4.596C4.54993 20.8507 4.50578 20.8324 4.4732 20.8C4.44062 20.7676 4.42224 20.7236 4.42209 20.6778V17.3947H4.41628V17.3947ZM9.97444 18.012C9.35428 18.012 8.937 18.4967 8.937 19.1198C8.937 19.743 9.35419 20.2277 9.97444 20.2277C10.5945 20.2277 11.0119 19.743 11.0119 19.1198C11.0119 18.4967 10.5945 18.012 9.97444 18.012ZM9.83531 17.3254C10.3338 17.3254 10.7511 17.5793 10.9481 17.8562V15.6636H11.7131V20.8508H11.1277C11.0817 20.8507 11.0375 20.8324 11.0049 20.8C10.9724 20.7676 10.954 20.7236 10.9538 20.6778V20.3893C10.7568 20.6662 10.3454 20.9201 9.84103 20.9201C8.89059 20.9201 8.16619 20.1123 8.16619 19.1256C8.16619 18.1389 8.88478 17.3254 9.83531 17.3254ZM12.5825 17.3947H13.3475V18.012C13.4808 17.6197 13.8691 17.36 14.2632 17.36C14.3618 17.36 14.4603 17.3657 14.5588 17.3889V18.1678C14.4255 18.1274 14.3153 18.1044 14.1763 18.1044C13.7416 18.1044 13.3417 18.4736 13.3417 19.1603V20.845H12.7564C12.7103 20.8449 12.6662 20.8266 12.6336 20.7942C12.601 20.7618 12.5826 20.7178 12.5825 20.672V17.3947V17.3947ZM16.6163 20.2103C17.2248 20.2103 17.6595 19.7315 17.6595 19.1198C17.6595 18.5024 17.2306 18.0293 16.6163 18.0293C15.9961 18.0293 15.5672 18.5081 15.5672 19.1198C15.5731 19.7372 16.0019 20.2103 16.6163 20.2103ZM16.6163 20.9201C15.5904 20.9201 14.7965 20.1238 14.7965 19.1256C14.7965 18.1216 15.5904 17.3254 16.6163 17.3254C17.6422 17.3254 18.4361 18.1215 18.4361 19.1256C18.4361 20.1238 17.6479 20.9201 16.6163 20.9201ZM19.0563 17.3947H19.8213V20.8508H19.2359C19.1899 20.8506 19.1457 20.8324 19.1132 20.8C19.0806 20.7675 19.0622 20.7236 19.0621 20.6778V17.3947H19.0563V17.3947ZM19.4388 16.6388C19.1606 16.6388 18.923 16.4079 18.923 16.1252C18.923 15.8483 19.1606 15.6233 19.4388 15.6233C19.7228 15.6233 19.943 15.854 19.943 16.1252C19.943 16.408 19.7228 16.6388 19.4388 16.6388M22.2613 18.012C21.6412 18.012 21.2239 18.4967 21.2239 19.1198C21.2239 19.743 21.6411 20.2277 22.2613 20.2277C22.8815 20.2277 23.2988 19.743 23.2988 19.1198C23.2929 18.4967 22.8815 18.012 22.2613 18.012ZM22.1222 17.3254C22.6207 17.3254 23.0379 17.5793 23.235 17.8562V15.6636H24V20.8508H23.4146C23.3686 20.8507 23.3244 20.8324 23.2918 20.8C23.2592 20.7676 23.2409 20.7236 23.2407 20.6778V20.3893C23.0438 20.6662 22.6323 20.9201 22.1279 20.9201C21.1775 20.9201 20.4531 20.1123 20.4531 19.1256C20.4531 18.1389 21.1717 17.3254 22.1222 17.3254" fill="black"/>
<path d="M17.8797 4.06606L19.8792 0.621403C19.9952 0.42531 19.9256 0.17135 19.7286 0.05599C19.5315 -0.05937 19.2765 0.00978997 19.1606 0.205977L17.1379 3.69104C15.5904 2.98712 13.8518 2.59475 12.0029 2.59475C10.1483 2.59475 8.41538 2.98712 6.86794 3.69104L4.84519 0.205977C4.72931 0.00978997 4.47431 -0.05937 4.27725 0.05599C4.08019 0.17135 4.01062 0.42531 4.1265 0.621403L6.12609 4.06606C2.68341 5.92404 0.341906 9.38018 0 13.4596H23.9942C23.6523 9.38018 21.305 5.92404 17.8798 4.06606H17.8797ZM6.47381 10.0553C5.92322 10.0553 5.47697 9.61099 5.47697 9.06284C5.47697 8.5147 5.92322 8.07043 6.47381 8.07043C7.02441 8.07043 7.47066 8.5147 7.47066 9.06284C7.47066 9.61099 7.02441 10.0553 6.47381 10.0553ZM17.5204 10.0553C16.9698 10.0553 16.5235 9.61099 16.5235 9.06284C16.5235 8.5147 16.9698 8.07043 17.5204 8.07043C18.071 8.07043 18.5173 8.5147 18.5173 9.06284C18.5173 9.61099 18.0711 10.0553 17.5204 10.0553Z" fill="#3DDC84"/>
</g>
<defs>
<clipPath id="clip0_91_135">
<rect width="24" height="21" fill="white"/>
</clipPath>
</defs>
</svg>
